<svg width="1160" height="221" viewBox="0 0 1160 221" fill="none" xmlns="http://www.w3.org/2000/svg">
<path d="M401.457 22.9C401.457 5.38 416.057 1 423.357 1C440.877 1 445.257 15.6 445.257 22.9C445.257 40.42 430.657 44.8 423.357 44.8C405.837 44.8 401.457 30.2 401.457 22.9Z" fill="#222222" stroke="#222222"/>
<path d="M514.769 137.036C519.368 112.034 545.43 112.384 557.885 117.119L557.886 91.5781C495.799 77.9407 480.279 114.278 477.403 137.036C468.57 206.953 530.099 206.141 555.01 196.671L555.011 159.765C518.218 173.403 512.853 150.295 514.769 137.036Z" fill="#222222" stroke="#222222"/>
<path d="M604.63 103.349V94.8571H642.909V114.671C685.31 101.084 701.8 117.502 701.8 134.486V157.131H684.133C681.777 141.279 668.428 137.316 660.576 137.316C637.02 137.316 631.131 165.622 631.131 171.284L628.186 213.743H601.686L604.63 103.349Z" fill="#222222" stroke="#222222"/>
<path d="M811.836 134.235L753.834 147.166C753.834 147.166 753.408 146.088 756.428 163.138C760.577 186.564 794.467 192.421 805.706 184.435L814.429 195.463C806.129 210.37 790.222 217.647 783.306 219.421C750.108 225.81 736.622 177.715 734.029 152.869C727.804 103.887 753.913 89.8668 767.745 88.9794C800.943 84.7201 810.972 117.375 811.836 134.235Z" fill="#222222" stroke="#222222"/>
<path d="M898.972 108.506C879.182 104.711 870.936 117.995 869.287 125.112C851.972 125.057 854.445 125.057 851.972 125.057C856.919 87.0469 886.604 81.6213 901.447 82.4122C937.07 84.3099 947.624 111.669 948.448 125.112V186.789H958.343V212.883C936.574 218.577 911.342 220 901.447 220C869.783 220 860.39 203.34 856.918 193.906C845.044 161.644 886.604 155.896 886.604 155.896L923.71 151.206V132.228C923.71 117.046 907.218 110.088 898.972 108.506Z" fill="#222222" stroke="#222222"/>
<path d="M1002.14 165.182L1016.36 88.0559L1050.47 82.3429L1047.62 113.765C1056.15 105.195 1061.84 102.339 1067.52 102.339C1074.55 102.339 1080.79 107.099 1084.58 110.908C1093.67 97.1968 1111.11 93.769 1118.69 93.769C1152.8 93.769 1159.43 116.621 1158.49 128.047L1149.96 196.604H1121.53L1124.38 159.469C1126.65 134.332 1121.97 130.904 1113 130.904C1104.04 130.904 1100.69 148.995 1098.79 156.612L1090.26 193.747H1067.52V153.756C1067.52 140.045 1062.94 136.617 1058.99 136.617C1049.9 136.617 1044.78 145.186 1041.94 165.182L1039.1 208.03L1002.14 213.743V165.182Z" fill="#222222" stroke="#222222"/>
<path d="M429.615 76.0859L388.943 82.3431C391.029 114.672 395.2 181.832 395.2 191.843C395.2 201.855 399.372 204.357 401.457 204.357H413.972C423.983 204.357 432.743 198.1 432.743 185.586L435.872 88.6002C435.872 82.3431 435.872 76.0859 429.615 76.0859Z" fill="#222222" stroke="#222222"/>
<path d="M45.2554 106.91C45.2554 164.636 105.625 160.023 138.657 156.344V191.049C1.04033 218.637 1.02364 91.7513 1.02328 88.9623L1.02328 88.9613C-0.622422 -13.8017 85.3985 -10.2913 133.151 18.4497V69.7221C73.9291 60.9248 45.2554 77.7232 45.2554 106.91Z" fill="#F18B6B" stroke="#F18B6B"/>
<path d="M206.25 94.8571H238.771L217.728 190.745C206.25 225.613 164.323 216.896 158.584 190.745L138.657 109.386H166.555C167.83 121.008 171.465 139.576 174.526 149.339C177.587 159.102 186.482 171.131 194.453 149.339L206.25 94.8571Z" fill="#4BA1B4" stroke="#4BA1B4"/>
</svg>
