<svg width="32" height="32" viewBox="0 0 32 32" fill="none" xmlns="http://www.w3.org/2000/svg">
<path fill-rule="evenodd" clip-rule="evenodd" d="M26 16C26 21.52 21.52 26 16 26C10.48 26 6 21.52 6 16C6 10.48 10.48 6 16 6C21.52 6 26 10.48 26 16ZM13 18.25C13.69 18.25 14.25 17.69 14.25 17C14.25 16.31 13.69 15.75 13 15.75C12.31 15.75 11.75 16.31 11.75 17C11.75 17.69 12.31 18.25 13 18.25ZM17.75 17C17.75 16.31 18.31 15.75 19 15.75C19.69 15.75 20.25 16.31 20.25 17C20.25 17.69 19.69 18.25 19 18.25C18.31 18.25 17.75 17.69 17.75 17ZM21.5 12C18.6 12 16.06 10.44 14.66 8.12C15.09 8.05 15.54 8 16 8C18.9 8 21.44 9.56 22.84 11.88C22.41 11.95 21.96 12 21.5 12ZM8.42 13.47C10.13 12.5 11.45 10.92 12.08 9.03C10.37 10 9.05 11.58 8.42 13.47ZM23.67 13.76C23.88 14.47 24 15.22 24 16C24 20.41 20.41 24 16 24C11.59 24 8 20.41 8 16C8 15.9829 8.00116 15.9659 8.0023 15.9492C8.00449 15.9171 8.00659 15.8864 8 15.86C10.6 14.88 12.69 12.87 13.74 10.31C15.58 12.56 18.37 14 21.5 14C22.25 14 22.97 13.91 23.67 13.76Z" fill="#656565"/>
</svg>
