<svg width="25" height="24" viewBox="0 0 25 24" fill="none" xmlns="http://www.w3.org/2000/svg">
<path fill-rule="evenodd" clip-rule="evenodd" d="M12.4998 6.16669C12.9601 6.16669 13.3332 6.53978 13.3332 7.00002V11.1667H17.4998C17.9601 11.1667 18.3332 11.5398 18.3332 12C18.3332 12.4603 17.9601 12.8334 17.4998 12.8334H13.3332V17C13.3332 17.4603 12.9601 17.8334 12.4998 17.8334C12.0396 17.8334 11.6665 17.4603 11.6665 17V12.8334H7.49984C7.0396 12.8334 6.6665 12.4603 6.6665 12C6.6665 11.5398 7.0396 11.1667 7.49984 11.1667H11.6665V7.00002C11.6665 6.53978 12.0396 6.16669 12.4998 6.16669Z" fill="#A7A7A7"/>
</svg>
