<svg width="24" height="24" viewBox="0 0 24 24" fill="none" xmlns="http://www.w3.org/2000/svg">
<path fill-rule="evenodd" clip-rule="evenodd" d="M12 6.16667C12.4602 6.16667 12.8333 6.53977 12.8333 7.00001V11.1667H17C17.4602 11.1667 17.8333 11.5398 17.8333 12C17.8333 12.4602 17.4602 12.8333 17 12.8333H12.8333V17C12.8333 17.4602 12.4602 17.8333 12 17.8333C11.5398 17.8333 11.1667 17.4602 11.1667 17V12.8333H7C6.53976 12.8333 6.16666 12.4602 6.16666 12C6.16666 11.5398 6.53976 11.1667 7 11.1667H11.1667V7.00001C11.1667 6.53977 11.5398 6.16667 12 6.16667Z" fill="#A7A7A7"/>
</svg>
