<svg width="20" height="20" viewBox="0 0 20 20" fill="none" xmlns="http://www.w3.org/2000/svg">
<path fill-rule="evenodd" clip-rule="evenodd" d="M3.33464 10C3.33464 11.7681 4.03701 13.4638 5.28726 14.7141C6.5375 15.9643 8.23319 16.6667 10.0013 16.6667C10.8768 16.6667 11.7437 16.4942 12.5525 16.1592C13.3614 15.8242 14.0963 15.3331 14.7153 14.7141C15.3344 14.095 15.8255 13.3601 16.1605 12.5512C16.4955 11.7424 16.668 10.8755 16.668 10C16.668 9.12453 16.4955 8.25762 16.1605 7.44879C15.8255 6.63995 15.3344 5.90502 14.7153 5.28596C14.0963 4.66691 13.3614 4.17584 12.5525 3.84081C11.7437 3.50578 10.8768 3.33334 10.0013 3.33334C8.23319 3.33334 6.5375 4.03572 5.28726 5.28596C4.03701 6.53621 3.33464 8.2319 3.33464 10ZM4.10875 15.8926C2.54594 14.3298 1.66797 12.2101 1.66797 10C1.66797 7.78987 2.54594 5.67026 4.10875 4.10745C5.67155 2.54465 7.79116 1.66668 10.0013 1.66668C11.0957 1.66668 12.1793 1.88222 13.1903 2.30101C14.2014 2.7198 15.12 3.33363 15.8939 4.10745C16.6677 4.88127 17.2815 5.79993 17.7003 6.81098C18.1191 7.82203 18.3346 8.90566 18.3346 10C18.3346 11.0944 18.1191 12.178 17.7003 13.189C17.2815 14.2001 16.6677 15.1187 15.8939 15.8926C15.12 16.6664 14.2014 17.2802 13.1903 17.699C12.1793 18.1178 11.0957 18.3333 10.0013 18.3333C7.79116 18.3333 5.67155 17.4554 4.10875 15.8926ZM6.91205 9.75593C6.58661 9.4305 6.58661 8.90286 6.91205 8.57742L9.41205 6.07742C9.73748 5.75198 10.2651 5.75198 10.5906 6.07742L13.0906 8.57742C13.416 8.90286 13.416 9.4305 13.0906 9.75593C12.7651 10.0814 12.2375 10.0814 11.912 9.75593L10.8346 8.67852V13.3333C10.8346 13.7936 10.4615 14.1667 10.0013 14.1667C9.54106 14.1667 9.16797 13.7936 9.16797 13.3333V8.67852L8.09056 9.75593C7.76512 10.0814 7.23748 10.0814 6.91205 9.75593Z" fill="#A7A7A7"/>
</svg>
