<svg width="32" height="32" viewBox="0 0 32 32" fill="none" xmlns="http://www.w3.org/2000/svg">
<g clip-path="url(#clip0_8821_64520)">
<circle cx="16" cy="16" r="16" fill="#FAD1C4"/>
<path d="M19.3601 9.06738C19.5821 9.29537 19.6931 9.55938 19.6931 9.85938C19.6931 10.1594 19.5821 10.4204 19.3601 10.6424C19.1381 10.8704 18.8741 10.9844 18.5681 10.9844C18.2681 10.9844 18.0041 10.8704 17.7761 10.6424C17.5481 10.4204 17.4341 10.1594 17.4341 9.85938C17.4341 9.55938 17.5481 9.29537 17.7761 9.06738C18.0041 8.84538 18.2681 8.73438 18.5681 8.73438C18.8741 8.73438 19.1381 8.84538 19.3601 9.06738ZM12.7541 9.06738C12.9821 9.29537 13.0961 9.55938 13.0961 9.85938C13.0961 10.1594 12.9821 10.4204 12.7541 10.6424C12.5321 10.8704 12.2711 10.9844 11.9711 10.9844C11.6711 10.9844 11.4071 10.8704 11.1791 10.6424C10.9511 10.4204 10.8371 10.1594 10.8371 9.85938C10.8371 9.55938 10.9511 9.29537 11.1791 9.06738C11.4071 8.84538 11.6711 8.73438 11.9711 8.73438C12.2711 8.73438 12.5321 8.84538 12.7541 9.06738Z" fill="#222222"/>
<path d="M8.37109 18.2081L9.60409 17.7401C9.92209 18.5201 10.4081 19.2041 11.0621 19.7921C11.7221 20.3801 12.4871 20.8301 13.3571 21.1421C14.2331 21.4601 15.1571 21.6191 16.1291 21.6191C17.1011 21.6191 18.0221 21.4601 18.8921 21.1421C19.7681 20.8301 20.5331 20.3801 21.1871 19.7921C21.8411 19.2041 22.3271 18.5201 22.6451 17.7401L23.8871 18.2081C23.3291 19.6601 22.3451 20.8301 20.9351 21.7181C19.5251 22.6121 17.9231 23.0591 16.1291 23.0591C14.3351 23.0591 12.7331 22.6121 11.3231 21.7181C9.91309 20.8301 8.92909 19.6601 8.37109 18.2081Z" fill="#222222"/>
</g>
<defs>
<clipPath id="clip0_8821_64520">
<rect width="32" height="32" fill="white"/>
</clipPath>
</defs>
</svg>
