<svg width="16" height="16" viewBox="0 0 16 16" fill="none" xmlns="http://www.w3.org/2000/svg">
<g id="icon/behance">
<path id="vector" d="M5.19267 3.60232C5.55293 3.59563 5.91269 3.63256 6.26408 3.71232C6.55994 3.77691 6.84084 3.89711 7.09185 4.06652C7.32367 4.23499 7.50709 4.46147 7.62371 4.72324C7.75773 5.04512 7.82238 5.39164 7.81346 5.7402C7.82868 6.12292 7.73093 6.50166 7.5324 6.82922C7.32355 7.13859 7.03485 7.38566 6.69694 7.54423C7.15551 7.66786 7.55492 7.95104 7.82336 8.34284C8.08105 8.75799 8.21057 9.23992 8.19571 9.72832C8.20421 10.1177 8.1237 10.5039 7.96031 10.8575C7.80928 11.1659 7.58815 11.4347 7.3146 11.6423C7.03297 11.8477 6.71605 11.9996 6.37958 12.0906C6.03066 12.1871 5.6702 12.2356 5.30817 12.2347H1.33325V3.60232H5.19267ZM4.96331 7.09377C5.24638 7.10544 5.52503 7.0207 5.75367 6.85342C5.86318 6.75594 5.94836 6.63419 6.00241 6.49791C6.05647 6.36163 6.07789 6.2146 6.06498 6.06856C6.07231 5.89799 6.03834 5.72818 5.96598 5.57355C5.90459 5.45044 5.80914 5.34754 5.69097 5.27709C5.57129 5.19955 5.43682 5.14767 5.29607 5.12474C5.14335 5.09516 4.98794 5.0817 4.83241 5.08459H3.13398V7.10147H4.96331V7.09377ZM5.06231 10.7689C5.2335 10.7713 5.40433 10.7528 5.57107 10.7139C5.72344 10.6803 5.86795 10.6177 5.99678 10.5297C6.12298 10.4417 6.22495 10.3233 6.29323 10.1854C6.37241 10.0096 6.40879 9.8175 6.39938 9.62492C6.41655 9.44942 6.39331 9.27232 6.33143 9.10719C6.26956 8.94207 6.1707 8.7933 6.04243 8.6723C5.77056 8.47206 5.43739 8.37286 5.10026 8.3918H3.13398V10.7689H5.06231Z" fill="white"/>
<path id="vector_2" d="M10.7604 10.737C10.9017 10.868 11.0682 10.9689 11.2498 11.0336C11.4313 11.0983 11.6241 11.1254 11.8164 11.1132C12.1213 11.1209 12.4203 11.0282 12.6673 10.8492C12.8682 10.7186 13.0204 10.5252 13.1001 10.2992H14.5362C14.3832 10.9426 14.0095 11.5121 13.4802 11.9086C12.9724 12.2456 12.3722 12.4163 11.7631 12.397C11.3283 12.4027 10.8968 12.3209 10.4942 12.1566C10.13 12.0047 9.8034 11.7752 9.53717 11.4839C9.27194 11.1788 9.06818 10.8253 8.93711 10.4428C8.78998 10.0153 8.71797 9.56549 8.72426 9.11341C8.72158 8.6689 8.79601 8.2273 8.94426 7.80823C9.14343 7.21869 9.52423 6.70739 10.032 6.34771C10.5398 5.98803 11.1485 5.79846 11.7708 5.8062C12.2301 5.7966 12.6844 5.90411 13.0908 6.11861C13.4581 6.32002 13.775 6.6021 14.0175 6.94362C14.2657 7.30198 14.4436 7.70419 14.5417 8.12889C14.6493 8.58494 14.6877 9.05459 14.6556 9.52206H10.3781C10.3435 9.96126 10.4805 10.3968 10.7604 10.737ZM12.637 7.45403C12.5173 7.3343 12.3734 7.24162 12.2148 7.18223C12.0563 7.12284 11.8869 7.09811 11.718 7.10972C11.4939 7.10118 11.2714 7.15082 11.0722 7.25383C10.9143 7.34075 10.775 7.45772 10.6619 7.59813C10.5618 7.72978 10.4872 7.87902 10.4419 8.03814C10.4012 8.17084 10.3757 8.30776 10.366 8.44625H13.0154C12.9923 8.08525 12.8608 7.73962 12.6381 7.45458L12.637 7.45403Z" fill="white"/>
<path id="vector_3" d="M13.3445 4.17871H10.0247V5.02737H13.3445V4.17871Z" fill="white"/>
</g>
</svg>
