<svg width="32" height="32" viewBox="0 0 32 32" fill="none" xmlns="http://www.w3.org/2000/svg">
<path fill-rule="evenodd" clip-rule="evenodd" d="M19.225 15.79C20.195 15.12 20.875 14.02 20.875 13C20.875 10.74 19.125 9 16.875 9H10.625V23H17.665C19.755 23 21.375 21.3 21.375 19.21C21.375 17.69 20.515 16.39 19.225 15.79ZM13.625 11.5H16.625C17.455 11.5 18.125 12.17 18.125 13C18.125 13.83 17.455 14.5 16.625 14.5H13.625V11.5ZM13.625 20.5H17.125C17.955 20.5 18.625 19.83 18.625 19C18.625 18.17 17.955 17.5 17.125 17.5H13.625V20.5Z" fill="#656565"/>
</svg>
