<svg width="24" height="24" viewBox="0 0 24 24" fill="none" xmlns="http://www.w3.org/2000/svg">
<path fill-rule="evenodd" clip-rule="evenodd" d="M12 5.33334C10.2319 5.33334 8.5362 6.03572 7.28596 7.28596C6.03572 8.5362 5.33334 10.2319 5.33334 12C5.33334 12.8755 5.50578 13.7424 5.84081 14.5512C6.17584 15.3601 6.6669 16.095 7.28596 16.7141C7.90502 17.3331 8.63995 17.8242 9.44878 18.1592C10.2576 18.4942 11.1245 18.6667 12 18.6667C12.8755 18.6667 13.7424 18.4942 14.5512 18.1592C15.3601 17.8242 16.095 17.3331 16.7141 16.7141C17.3331 16.095 17.8242 15.3601 18.1592 14.5512C18.4942 13.7424 18.6667 12.8755 18.6667 12C18.6667 10.2319 17.9643 8.5362 16.7141 7.28596C15.4638 6.03572 13.7681 5.33334 12 5.33334ZM6.10745 6.10745C7.67025 4.54465 9.78987 3.66667 12 3.66667C14.2101 3.66667 16.3298 4.54465 17.8926 6.10745C19.4554 7.67025 20.3333 9.78987 20.3333 12C20.3333 13.0944 20.1178 14.178 19.699 15.189C19.2802 16.2001 18.6664 17.1187 17.8926 17.8926C17.1187 18.6664 16.2001 19.2802 15.189 19.699C14.178 20.1178 13.0944 20.3333 12 20.3333C10.9057 20.3333 9.82202 20.1178 8.81098 19.699C7.79993 19.2802 6.88127 18.6664 6.10745 17.8926C5.33363 17.1187 4.7198 16.2001 4.30101 15.189C3.88222 14.178 3.66667 13.0944 3.66667 12C3.66667 9.78987 4.54465 7.67025 6.10745 6.10745ZM15.0893 9.74408C15.4147 10.0695 15.4147 10.5972 15.0893 10.9226L11.7559 14.2559C11.4305 14.5814 10.9029 14.5814 10.5774 14.2559L8.91075 12.5893C8.58531 12.2638 8.58531 11.7362 8.91075 11.4107C9.23619 11.0853 9.76382 11.0853 10.0893 11.4107L11.1667 12.4882L13.9108 9.74408C14.2362 9.41865 14.7638 9.41865 15.0893 9.74408Z" fill="#A7A7A7"/>
</svg>
