<svg width="24" height="24" viewBox="0 0 24 24" fill="none" xmlns="http://www.w3.org/2000/svg">
<path fill-rule="evenodd" clip-rule="evenodd" d="M12 5.33334C10.2319 5.33334 8.53619 6.03572 7.28594 7.28596C6.0357 8.5362 5.33332 10.2319 5.33332 12C5.33332 12.8755 5.50576 13.7424 5.84079 14.5512C6.17582 15.3601 6.66689 16.095 7.28594 16.7141C7.905 17.3331 8.63993 17.8242 9.44877 18.1592C10.2576 18.4942 11.1245 18.6667 12 18.6667C12.8755 18.6667 13.7424 18.4942 14.5512 18.1592C15.36 17.8242 16.095 17.3331 16.714 16.7141C17.3331 16.095 17.8242 15.3601 18.1592 14.5512C18.4942 13.7424 18.6667 12.8755 18.6667 12C18.6667 10.2319 17.9643 8.5362 16.714 7.28596C15.4638 6.03572 13.7681 5.33334 12 5.33334ZM6.10743 6.10745C7.67024 4.54465 9.78985 3.66667 12 3.66667C14.2101 3.66667 16.3297 4.54465 17.8925 6.10745C19.4553 7.67025 20.3333 9.78987 20.3333 12C20.3333 13.0944 20.1178 14.178 19.699 15.189C19.2802 16.2001 18.6664 17.1187 17.8925 17.8926C17.1187 18.6664 16.2001 19.2802 15.189 19.699C14.178 20.1178 13.0943 20.3333 12 20.3333C10.9056 20.3333 9.82201 20.1178 8.81096 19.699C7.79991 19.2802 6.88125 18.6664 6.10743 17.8926C5.33361 17.1187 4.71978 16.2001 4.30099 15.189C3.8822 14.178 3.66666 13.0944 3.66666 12C3.66666 9.78987 4.54463 7.67025 6.10743 6.10745ZM12.2441 8.91075C12.5695 8.58531 13.0971 8.58531 13.4226 8.91075L15.9226 11.4107C16.248 11.7362 16.248 12.2638 15.9226 12.5893L13.4226 15.0893C13.0971 15.4147 12.5695 15.4147 12.2441 15.0893C11.9186 14.7638 11.9186 14.2362 12.2441 13.9108L13.3215 12.8333H8.66666C8.20642 12.8333 7.83332 12.4602 7.83332 12C7.83332 11.5398 8.20642 11.1667 8.66666 11.1667H13.3215L12.2441 10.0893C11.9186 9.76382 11.9186 9.23619 12.2441 8.91075Z" fill="#A7A7A7"/>
</svg>
