<svg width="32" height="32" viewBox="0 0 32 32" fill="none" xmlns="http://www.w3.org/2000/svg">
<path fill-rule="evenodd" clip-rule="evenodd" d="M6.87869 8.87868C7.4413 8.31607 8.20437 8 9.00001 8H23C23.7957 8 24.5587 8.31607 25.1213 8.87868C25.6839 9.44129 26 10.2043 26 11V11.9845C26.0002 11.9942 26.0002 12.004 26 12.0137V21C26 21.7957 25.6839 22.5587 25.1213 23.1213C24.5587 23.6839 23.7957 24 23 24H9.00001C8.20436 24 7.4413 23.6839 6.87869 23.1213C6.31609 22.5587 6.00001 21.7956 6.00001 21V12.0137C5.99987 12.004 5.99987 11.9942 6.00001 11.9845V11C6.00001 10.2044 6.31609 9.44129 6.87869 8.87868ZM8.00001 13.8685V21C8.00001 21.2652 8.10537 21.5196 8.29291 21.7071C8.48044 21.8946 8.7348 22 9.00001 22H23C23.2652 22 23.5196 21.8946 23.7071 21.7071C23.8947 21.5196 24 21.2652 24 21V13.8685L17.665 18.0919C17.6649 18.0919 17.6648 18.092 17.6647 18.0921C17.1718 18.4208 16.5925 18.5963 16 18.5963C15.4075 18.5963 14.8282 18.4208 14.3353 18.0921C14.3352 18.092 14.3351 18.0919 14.335 18.0919L8.00001 13.8685ZM24 11.4648L16.5553 16.4279L16.555 16.4282C16.3907 16.5378 16.1976 16.5963 16 16.5963C15.8025 16.5963 15.6093 16.5378 15.445 16.4282L15.4447 16.4279L8.00001 11.4648V11C8.00001 10.7348 8.10537 10.4804 8.29291 10.2929C8.48044 10.1054 8.7348 10 9.00001 10H23C23.2652 10 23.5196 10.1054 23.7071 10.2929C23.8947 10.4804 24 10.7348 24 11V11.4648Z" fill="#656565"/>
</svg>
