<svg width="32" height="32" viewBox="0 0 32 32" fill="none" xmlns="http://www.w3.org/2000/svg">
<path d="M21 11H23C23.5304 11 24.0391 11.2107 24.4142 11.5858C24.7893 11.9609 25 12.4696 25 13V19C25 19.5304 24.7893 20.0391 24.4142 20.4142C24.0391 20.7893 23.5304 21 23 21H21V25L17 21H13C12.7373 21.0003 12.4772 20.9486 12.2345 20.8481C11.9919 20.7475 11.7715 20.6 11.586 20.414M11.586 20.414L15 17H19C19.5304 17 20.0391 16.7893 20.4142 16.4142C20.7893 16.0391 21 15.5304 21 15V9C21 8.46957 20.7893 7.96086 20.4142 7.58579C20.0391 7.21071 19.5304 7 19 7H9C8.46957 7 7.96086 7.21071 7.58579 7.58579C7.21071 7.96086 7 8.46957 7 9V15C7 15.5304 7.21071 16.0391 7.58579 16.4142C7.96086 16.7893 8.46957 17 9 17H11V21L11.586 20.414Z" stroke="#656565" stroke-width="2" stroke-linecap="round" stroke-linejoin="round"/>
</svg>
