<svg width="151" height="30" viewBox="0 0 151 30" fill="none" xmlns="http://www.w3.org/2000/svg">
<path d="M52.3926 3.83784C52.3926 1.56757 54.2845 1 55.2304 1C57.5007 1 58.0683 2.89189 58.0683 3.83784C58.0683 6.10811 56.1764 6.67568 55.2304 6.67568C52.9601 6.67568 52.3926 4.78378 52.3926 3.83784Z" fill="#222222" stroke="#222222" stroke-width="0.282974"/>
<path d="M67.0745 18.628C67.6705 15.3882 71.0475 15.4335 72.6616 16.0471L72.6616 12.7375C64.6164 10.9703 62.6052 15.679 62.2326 18.628C61.0879 27.688 69.061 27.5827 72.289 26.3555L72.2891 21.5733C67.5215 23.3404 66.8262 20.3461 67.0745 18.628Z" fill="#222222" stroke="#222222" stroke-width="0.282974"/>
<path d="M78.7194 14.2644V13.1641H83.6797V15.7316C89.1741 13.971 91.3109 16.0984 91.3109 18.2992V21.2336H89.0215C88.7163 19.1795 86.9865 18.666 85.9691 18.666C82.9166 18.666 82.1535 22.3339 82.1535 23.0675L81.7719 28.5695H78.3379L78.7194 14.2644Z" fill="#222222" stroke="#222222" stroke-width="0.282974"/>
<path d="M105.57 18.265L98.0539 19.9406C98.0539 19.9406 97.9986 19.801 98.3899 22.0103C98.9276 25.046 103.319 25.8049 104.775 24.77L105.906 26.199C104.83 28.1308 102.769 29.0736 101.873 29.3036C97.571 30.1315 95.8235 23.8993 95.4874 20.6797C94.6809 14.3325 98.064 12.5157 99.8565 12.4007C104.158 11.8488 105.458 16.0803 105.57 18.265Z" fill="#222222" stroke="#222222" stroke-width="0.282974"/>
<path d="M116.86 14.9294C114.296 14.4375 113.227 16.1589 113.013 17.0811C110.77 17.074 111.09 17.074 110.77 17.074C111.411 12.1486 115.257 11.4456 117.181 11.548C121.797 11.794 123.164 15.3392 123.271 17.0811V25.0734H124.553V28.4547C121.732 29.1925 118.463 29.3769 117.181 29.3769C113.078 29.3769 111.86 27.218 111.411 25.9956C109.872 21.815 115.257 21.0701 115.257 21.0701L120.065 20.4625V18.0033C120.065 16.036 117.928 15.1343 116.86 14.9294Z" fill="#222222" stroke="#222222" stroke-width="0.282974"/>
<path d="M130.23 22.2735L132.072 12.2794L136.492 11.5391L136.124 15.6107C137.229 14.5003 137.966 14.1301 138.703 14.1301C139.613 14.1301 140.422 14.7471 140.913 15.2406C142.091 13.4639 144.351 13.0197 145.333 13.0197C149.753 13.0197 150.613 15.9809 150.49 17.4615L149.385 26.3452H145.701L146.07 21.5332C146.364 18.2758 145.758 17.8317 144.596 17.8317C143.434 17.8317 143 20.176 142.754 21.163L141.649 25.975H138.703V20.7929C138.703 19.0161 138.108 18.572 137.597 18.572C136.419 18.572 135.756 19.6824 135.387 22.2735L135.019 27.8258L130.23 28.5661V22.2735Z" fill="#222222" stroke="#222222" stroke-width="0.282974"/>
<path d="M56.0398 10.7305L50.7695 11.5413C51.0398 15.7305 51.5803 24.4332 51.5803 25.7305C51.5803 27.0278 52.1209 27.3521 52.3912 27.3521H54.0128C55.3101 27.3521 56.4452 26.5413 56.4452 24.9197L56.8506 12.3521C56.8506 11.5413 56.8506 10.7305 56.0398 10.7305Z" fill="#222222" stroke="#222222" stroke-width="0.282974"/>
<path d="M6.23469 14.7256C6.23469 22.2058 14.0575 21.608 18.3378 21.1313V25.6285C0.505225 29.2033 0.503064 12.7613 0.503016 12.3999L0.503016 12.3997C0.289764 -0.916464 11.4365 -0.461576 17.6244 3.26272V9.90669C9.95027 8.76672 6.23469 10.9435 6.23469 14.7256Z" fill="#F18B6B" stroke="#F18B6B" stroke-width="0.282974"/>
<path d="M27.0964 13.1641H31.3105L28.5838 25.5894C27.0964 30.1077 21.6634 28.9781 20.9198 25.5894L18.3376 15.0467H21.9526C22.1179 16.5528 22.5889 18.9588 22.9855 20.2239C23.3821 21.489 24.5348 23.0478 25.5677 20.2239L27.0964 13.1641Z" fill="#4BA1B4" stroke="#4BA1B4" stroke-width="0.282974"/>
</svg>
