<svg width="201" height="60" viewBox="0 0 201 60" fill="none" xmlns="http://www.w3.org/2000/svg">
<path d="M74.8262 17.6476C74.8262 14.824 77.3903 14.1182 78.6723 14.1182C81.7492 14.1182 82.5185 16.4711 82.5185 17.6476C82.5185 20.4711 79.9544 21.177 78.6723 21.177C75.5954 21.177 74.8262 18.824 74.8262 17.6476Z" fill="#222222" stroke="#222222"/>
<path d="M93.658 36.4306C94.4092 32.1999 98.6662 32.2591 100.701 33.0603L100.701 28.7383C90.5594 26.4306 88.0242 32.5796 87.5546 36.4307C86.1117 48.2619 96.162 48.1245 100.231 46.5219L100.231 40.2768C94.2214 42.5845 93.345 38.6743 93.658 36.4306Z" fill="#222222" stroke="#222222"/>
<path d="M108.187 31.0592V29.6475H114.604V32.9416C121.712 30.6828 124.477 33.4122 124.477 36.2357V40.0004H121.515C121.12 37.3651 118.882 36.7063 117.566 36.7063C113.617 36.7063 112.63 41.4122 112.63 42.3533L112.136 49.4122H107.693L108.187 31.0592Z" fill="#222222" stroke="#222222"/>
<path d="M142.935 35.834L133.461 37.9875C133.461 37.9875 133.392 37.808 133.885 40.6474C134.563 44.5486 140.098 45.5239 141.934 44.194L143.359 46.0305C142.003 48.5131 139.405 49.7248 138.275 50.0204C132.853 51.0843 130.65 43.075 130.226 38.9373C129.21 30.7802 133.474 28.4453 135.734 28.2976C141.156 27.5882 142.794 33.0263 142.935 35.834Z" fill="#222222" stroke="#222222"/>
<path d="M157.066 31.8225C153.944 31.1996 152.643 33.3795 152.382 34.5472C149.65 34.5383 150.041 34.5383 149.65 34.5383C150.431 28.3012 155.115 27.4109 157.457 27.5407C163.077 27.8521 164.742 32.3415 164.872 34.5472V44.6679H166.434V48.9498C162.999 49.884 159.018 50.1175 157.457 50.1175C152.461 50.1175 150.979 47.3837 150.431 45.8357C148.557 40.5418 155.115 39.5986 155.115 39.5986L160.969 38.8291V35.715C160.969 33.2238 158.367 32.082 157.066 31.8225Z" fill="#222222" stroke="#222222"/>
<path d="M174.125 41.3247L176.476 28.4807L182.118 27.5293L181.648 32.762C183.059 31.3349 183.999 30.8592 184.939 30.8592C186.101 30.8592 187.133 31.6521 187.76 32.2863C189.265 30.003 192.149 29.4321 193.403 29.4321C199.045 29.4321 200.142 33.2377 199.985 35.1405L198.575 46.5574H193.873L194.343 40.3733C194.719 36.1871 193.946 35.6163 192.462 35.6163C190.979 35.6163 190.425 38.629 190.111 39.8976L188.701 46.0817H184.939V39.4219C184.939 37.1385 184.181 36.5677 183.529 36.5677C182.024 36.5677 181.178 37.9948 180.708 41.3247L180.237 48.4602L174.125 49.4116V41.3247Z" fill="#222222" stroke="#222222"/>
<path d="M79.3952 26.1182L72.7285 27.1856C73.0704 32.7007 73.7542 44.1578 73.7542 45.8657C73.7542 47.5735 74.4379 48.0005 74.7798 48.0005H76.8311C78.4721 48.0005 79.908 46.9331 79.908 44.7982L80.4208 28.253C80.4208 27.1856 80.4208 26.1182 79.3952 26.1182Z" fill="#222222" stroke="#222222"/>
<g clip-path="url(#clip0_5210_50422)">
<ellipse cx="29.7203" cy="30" rx="29.7203" ry="30" fill="white"/>
<path d="M29.3646 17.1891C19.0458 17.1891 19.8704 28.7011 20.528 35L14.3242 35C9.39266 8.75769 32.0744 8.75451 32.5729 8.75444L32.5731 8.75444C50.9426 8.44062 50.3151 24.8441 45.1775 33.9501L36.0122 33.9501C37.5848 22.6569 34.582 17.1891 29.3646 17.1891Z" fill="#F18B6B" stroke="#F18B6B"/>
<path d="M34.8647 35H42.1055L37.4203 51.1311C34.8647 56.9969 25.5298 55.5305 24.252 51.1311L19.8153 37.4441H26.0267C26.3106 39.3994 27.1199 42.523 27.8014 44.1654C28.4828 45.8078 30.4634 47.8315 32.2381 44.1654L34.8647 35Z" fill="#4BA1B4" stroke="#4BA1B4"/>
</g>
<defs>
<clipPath id="clip0_5210_50422">
<rect width="59.4406" height="60" fill="white"/>
</clipPath>
</defs>
</svg>
