<svg width="24" height="24" viewBox="0 0 24 24" fill="none" xmlns="http://www.w3.org/2000/svg">
<path fill-rule="evenodd" clip-rule="evenodd" d="M8.4 3C8.89706 3 9.3 3.40294 9.3 3.9V4.8H14.7V3.9C14.7 3.40294 15.1029 3 15.6 3C16.0971 3 16.5 3.40294 16.5 3.9V4.8H18.3C19.0161 4.8 19.7028 5.08446 20.2092 5.59081C20.7155 6.09716 21 6.78391 21 7.5V18.3C21 19.0161 20.7155 19.7028 20.2092 20.2092C19.7028 20.7155 19.0161 21 18.3 21H5.7C4.98392 21 4.29716 20.7155 3.79081 20.2092C3.28446 19.7028 3 19.0161 3 18.3V7.5C3 6.78392 3.28446 6.09716 3.79081 5.59081C4.29716 5.08446 4.98392 4.8 5.7 4.8H7.5V3.9C7.5 3.40294 7.90294 3 8.4 3ZM7.5 6.6H5.7C5.4613 6.6 5.23239 6.69482 5.0636 6.8636C4.89482 7.03239 4.8 7.2613 4.8 7.5V18.3C4.8 18.5387 4.89482 18.7676 5.0636 18.9364C5.23239 19.1052 5.46131 19.2 5.7 19.2H18.3C18.5387 19.2 18.7676 19.1052 18.9364 18.9364C19.1052 18.7676 19.2 18.5387 19.2 18.3V7.5C19.2 7.26131 19.1052 7.03239 18.9364 6.8636C18.7676 6.69482 18.5387 6.6 18.3 6.6H16.5V7.5C16.5 7.99706 16.0971 8.4 15.6 8.4C15.1029 8.4 14.7 7.99706 14.7 7.5V6.6H9.3V7.5C9.3 7.99706 8.89706 8.4 8.4 8.4C7.90294 8.4 7.5 7.99706 7.5 7.5V6.6ZM6.6 11.1C6.6 10.6029 7.00294 10.2 7.5 10.2H16.5C16.9971 10.2 17.4 10.6029 17.4 11.1C17.4 11.5971 16.9971 12 16.5 12H7.5C7.00294 12 6.6 11.5971 6.6 11.1Z" fill="#A7A7A7"/>
</svg>
