<svg width="32" height="32" viewBox="0 0 32 32" fill="none" xmlns="http://www.w3.org/2000/svg">
<path fill-rule="evenodd" clip-rule="evenodd" d="M12.5858 6.58579C12.9609 6.21071 13.4696 6 14 6H18C18.5304 6 19.0391 6.21071 19.4142 6.58579C19.7893 6.96086 20 7.46957 20 8V10H24C24.5523 10 25 10.4477 25 11C25 11.5523 24.5523 12 24 12H23.9311L23.1305 23.213C23.1305 23.2131 23.1305 23.2129 23.1305 23.213C23.0765 23.9698 22.7379 24.6783 22.1826 25.1954C21.6274 25.7125 20.8968 26 20.138 26H11.862C11.1032 26 10.3726 25.7125 9.81735 25.1954C9.26213 24.6783 8.92347 23.97 8.86954 23.2132C8.86953 23.2132 8.86955 23.2133 8.86954 23.2132L8.06886 12H8C7.44772 12 7 11.5523 7 11C7 10.4477 7.44772 10 8 10H12V8C12 7.46957 12.2107 6.96086 12.5858 6.58579ZM14 10H18V8H14V10ZM10.074 12L10.8645 23.0708C10.8824 23.3231 10.9953 23.5594 11.1804 23.7318C11.3655 23.9042 11.609 24 11.862 24H20.138C20.391 24 20.6345 23.9042 20.8196 23.7318C21.0047 23.5594 21.1176 23.3233 21.1355 23.071L21.926 12H10.074ZM14 14C14.5523 14 15 14.4477 15 15V21C15 21.5523 14.5523 22 14 22C13.4477 22 13 21.5523 13 21V15C13 14.4477 13.4477 14 14 14ZM18 14C18.5523 14 19 14.4477 19 15V21C19 21.5523 18.5523 22 18 22C17.4477 22 17 21.5523 17 21V15C17 14.4477 17.4477 14 18 14Z" fill="#656565"/>
</svg>
