<svg width="32" height="32" viewBox="0 0 32 32" fill="none" xmlns="http://www.w3.org/2000/svg">
<path fill-rule="evenodd" clip-rule="evenodd" d="M9 6C9.55228 6 10 6.44772 10 7V8H11C11.5523 8 12 8.44772 12 9C12 9.55228 11.5523 10 11 10H10V11C10 11.5523 9.55228 12 9 12C8.44772 12 8 11.5523 8 11V10H7C6.44772 10 6 9.55228 6 9C6 8.44772 6.44772 8 7 8H8V7C8 6.44772 8.44772 6 9 6ZM17 6C17.4304 6 17.8125 6.27541 17.9487 6.68373L20.0838 13.0882L25.3512 15.0637C25.7414 15.2101 26 15.5832 26 16C26 16.4168 25.7414 16.7899 25.3512 16.9363L20.0838 18.9118L17.9487 25.3163C17.8125 25.7246 17.4304 26 17 26C16.5696 26 16.1875 25.7246 16.0513 25.3163L13.9162 18.9118L8.64884 16.9363C8.25856 16.7899 8 16.4168 8 16C8 15.5832 8.25856 15.2101 8.64884 15.0637L13.9162 13.0882L16.0513 6.68373C16.1875 6.27541 16.5696 6 17 6ZM17 10.1619L15.6627 14.1733C15.5672 14.4595 15.3477 14.6874 15.0652 14.7933L11.8477 16L15.0652 17.2067C15.3477 17.3126 15.5672 17.5405 15.6627 17.8267L17 21.8381L18.3373 17.8267C18.4328 17.5405 18.6523 17.3126 18.9348 17.2067L22.1523 16L18.9348 14.7933C18.6523 14.6874 18.4328 14.4595 18.3373 14.1733L17 10.1619ZM10 20C10.5523 20 11 20.4477 11 21V22H12C12.5523 22 13 22.4477 13 23C13 23.5523 12.5523 24 12 24H11V25C11 25.5523 10.5523 26 10 26C9.44772 26 9 25.5523 9 25V24H8C7.44772 24 7 23.5523 7 23C7 22.4477 7.44772 22 8 22H9V21C9 20.4477 9.44772 20 10 20Z" fill="#656565"/>
</svg>
