<svg width="24" height="25" viewBox="0 0 24 25" fill="none" xmlns="http://www.w3.org/2000/svg">
<path d="M6.5 10.9023C7.32843 10.9023 8 11.5739 8 12.4023C8 13.2308 7.32843 13.9023 6.5 13.9023C5.67157 13.9023 5 13.2308 5 12.4023C5 11.5739 5.67157 10.9023 6.5 10.9023Z" fill="#656565"/>
<path d="M12 10.9023C12.8284 10.9023 13.5 11.5739 13.5 12.4023C13.5 13.2308 12.8284 13.9023 12 13.9023C11.1716 13.9023 10.5 13.2308 10.5 12.4023C10.5 11.5739 11.1716 10.9023 12 10.9023Z" fill="#656565"/>
<path d="M17.5 10.9023C18.3284 10.9023 19 11.5739 19 12.4023C19 13.2308 18.3284 13.9023 17.5 13.9023C16.6716 13.9023 16 13.2308 16 12.4023C16 11.5739 16.6716 10.9023 17.5 10.9023Z" fill="#656565"/>
</svg>
