<svg width="32" height="32" viewBox="0 0 32 32" fill="none" xmlns="http://www.w3.org/2000/svg">
<path fill-rule="evenodd" clip-rule="evenodd" d="M16 7C16.5523 7 17 7.44772 17 8V17.5858L19.2929 15.2929C19.6834 14.9024 20.3166 14.9024 20.7071 15.2929C21.0976 15.6834 21.0976 16.3166 20.7071 16.7071L16.7071 20.7071C16.3166 21.0976 15.6834 21.0976 15.2929 20.7071L11.2929 16.7071C10.9024 16.3166 10.9024 15.6834 11.2929 15.2929C11.6834 14.9024 12.3166 14.9024 12.7071 15.2929L15 17.5858V8C15 7.44772 15.4477 7 16 7ZM8 19C8.55228 19 9 19.4477 9 20V21C9 21.5304 9.21071 22.0391 9.58579 22.4142C9.96086 22.7893 10.4696 23 11 23H21C21.5304 23 22.0391 22.7893 22.4142 22.4142C22.7893 22.0391 23 21.5304 23 21V20C23 19.4477 23.4477 19 24 19C24.5523 19 25 19.4477 25 20V21C25 22.0609 24.5786 23.0783 23.8284 23.8284C23.0783 24.5786 22.0609 25 21 25H11C9.93913 25 8.92172 24.5786 8.17157 23.8284C7.42143 23.0783 7 22.0609 7 21V20C7 19.4477 7.44772 19 8 19Z" fill="#656565"/>
</svg>
