<svg width="20" height="20" viewBox="0 0 20 20" fill="none" xmlns="http://www.w3.org/2000/svg">
<path fill-rule="evenodd" clip-rule="evenodd" d="M7.5 3.75C6.8125 3.75 6.25 4.3125 6.25 5C6.25 5.6875 6.8125 6.25 7.5 6.25C8.1875 6.25 8.75 5.6875 8.75 5C8.75 4.3125 8.1875 3.75 7.5 3.75ZM6.25 10C6.25 9.3125 6.8125 8.75 7.5 8.75C8.1875 8.75 8.75 9.3125 8.75 10C8.75 10.6875 8.1875 11.25 7.5 11.25C6.8125 11.25 6.25 10.6875 6.25 10ZM7.5 16.25C8.1875 16.25 8.75 15.6875 8.75 15C8.75 14.3125 8.1875 13.75 7.5 13.75C6.8125 13.75 6.25 14.3125 6.25 15C6.25 15.6875 6.8125 16.25 7.5 16.25ZM13.75 5C13.75 5.6875 13.1875 6.25 12.5 6.25C11.8125 6.25 11.25 5.6875 11.25 5C11.25 4.3125 11.8125 3.75 12.5 3.75C13.1875 3.75 13.75 4.3125 13.75 5ZM12.5 8.75C11.8125 8.75 11.25 9.3125 11.25 10C11.25 10.6875 11.8125 11.25 12.5 11.25C13.1875 11.25 13.75 10.6875 13.75 10C13.75 9.3125 13.1875 8.75 12.5 8.75ZM11.25 15C11.25 14.3125 11.8125 13.75 12.5 13.75C13.1875 13.75 13.75 14.3125 13.75 15C13.75 15.6875 13.1875 16.25 12.5 16.25C11.8125 16.25 11.25 15.6875 11.25 15Z" fill="#A7A7A7"/>
</svg>
