<svg width="32" height="32" viewBox="0 0 32 32" fill="none" xmlns="http://www.w3.org/2000/svg">
<path fill-rule="evenodd" clip-rule="evenodd" d="M23.4032 8.0499C23.2803 7.99962 23.1487 7.97432 23.0159 7.97547C22.8831 7.97662 22.7519 8.00421 22.6299 8.05662C22.5079 8.10903 22.3975 8.18521 22.3053 8.28072L22.2931 8.29312L14 16.5862V18H15.4138L23.7069 9.7069L23.7193 9.69472C23.8148 9.60247 23.891 9.49213 23.9434 9.37013C23.9958 9.24812 24.0234 9.1169 24.0245 8.98412C24.0257 8.85135 24.0004 8.71967 23.9501 8.59677C23.8998 8.47387 23.8256 8.36222 23.7317 8.26833C23.6378 8.17443 23.5261 8.10018 23.4032 8.0499ZM22.9985 5.97555C23.3968 5.97209 23.7919 6.04799 24.1606 6.19883C24.5293 6.34968 24.8642 6.57244 25.1459 6.85411C25.4276 7.13579 25.6503 7.47075 25.8012 7.83944C25.952 8.20812 26.0279 8.60316 26.0245 9.0015C26.021 9.39984 25.9382 9.7935 25.781 10.1595C25.6251 10.5226 25.3989 10.8512 25.1156 11.1266L16.5351 19.7071C16.3476 19.8947 16.0932 20 15.828 20H13C12.4477 20 12 19.5523 12 19V16.172C12 15.9068 12.1054 15.6524 12.2929 15.4649L20.8734 6.88442C21.1488 6.60111 21.4774 6.37496 21.8405 6.21899C22.2065 6.06177 22.6002 5.97901 22.9985 5.97555ZM7.87868 8.87869C8.44129 8.31608 9.20435 8.00001 10 8.00001H15C15.5523 8.00001 16 8.44773 16 9.00001C16 9.55229 15.5523 10 15 10H10C9.73478 10 9.48043 10.1054 9.29289 10.2929C9.10536 10.4804 9 10.7348 9 11V22C9 22.2652 9.10536 22.5196 9.29289 22.7071C9.48043 22.8947 9.73478 23 10 23H21C21.2652 23 21.5196 22.8947 21.7071 22.7071C21.8946 22.5196 22 22.2652 22 22V17C22 16.4477 22.4477 16 23 16C23.5523 16 24 16.4477 24 17V22C24 22.7957 23.6839 23.5587 23.1213 24.1213C22.5587 24.6839 21.7957 25 21 25H10C9.20435 25 8.44129 24.6839 7.87868 24.1213C7.31607 23.5587 7 22.7957 7 22V11C7 10.2044 7.31607 9.4413 7.87868 8.87869Z" fill="#656565"/>
</svg>
