<svg width="24" height="24" viewBox="0 0 24 24" fill="none" xmlns="http://www.w3.org/2000/svg">
<path fill-rule="evenodd" clip-rule="evenodd" d="M12 24C5.37258 24 0 18.6274 0 12C0 5.37258 5.37258 0 12 0C18.6274 0 24 5.37258 24 12C24 18.6274 18.6274 24 12 24ZM12.1672 11.3265C13.1498 11.3265 17.9272 8.64 17.9272 8.64L17.9349 8.16C17.9349 7.63008 17.5048 7.2 16.9735 7.2H7.36098C6.8301 7.2 6.40002 7.63008 6.40002 8.16V8.58768C6.40002 8.58768 11.2298 11.3265 12.1672 11.3265ZM6.4077 10.08C6.40722 10.08 11.2298 12.6465 12.1672 12.6465C13.1949 12.6465 17.9272 10.08 17.9272 10.08L17.9349 15.84C17.9349 16.3699 17.5048 16.8 16.9735 16.8H7.36098C6.83058 16.8 6.40002 16.3699 6.40002 15.84L6.4077 10.08Z" fill="#656565"/>
</svg>
