<svg width="24" height="24" viewBox="0 0 24 24" fill="none" xmlns="http://www.w3.org/2000/svg">
<path fill-rule="evenodd" clip-rule="evenodd" d="M12 18.6667C13.7681 18.6667 15.4638 17.9643 16.7141 16.714C17.9643 15.4638 18.6667 13.7681 18.6667 12C18.6667 11.1245 18.4942 10.2576 18.1592 9.44877C17.8242 8.63993 17.3331 7.90501 16.7141 7.28595C16.095 6.66689 15.3601 6.17583 14.5512 5.8408C13.7424 5.50577 12.8755 5.33333 12 5.33333C11.1245 5.33333 10.2576 5.50577 9.44879 5.8408C8.63995 6.17583 7.90502 6.66689 7.28596 7.28595C6.66691 7.90501 6.17584 8.63994 5.84081 9.44877C5.50578 10.2576 5.33334 11.1245 5.33334 12C5.33334 13.7681 6.03572 15.4638 7.28596 16.714C8.53621 17.9643 10.2319 18.6667 12 18.6667ZM17.8926 17.8926C16.3298 19.4554 14.2101 20.3333 12 20.3333C9.78987 20.3333 7.67026 19.4554 6.10745 17.8926C4.54465 16.3297 3.66668 14.2101 3.66668 12C3.66668 10.9056 3.88222 9.82201 4.30101 8.81097C4.7198 7.79992 5.33363 6.88126 6.10745 6.10744C6.88127 5.33362 7.79993 4.71979 8.81098 4.301C9.82203 3.88221 10.9057 3.66666 12 3.66666C13.0944 3.66666 14.178 3.88221 15.189 4.301C16.2001 4.71979 17.1187 5.33362 17.8926 6.10744C18.6664 6.88126 19.2802 7.79992 19.699 8.81097C20.1178 9.82201 20.3333 10.9056 20.3333 12C20.3333 14.2101 19.4554 16.3297 17.8926 17.8926ZM11.7559 15.0893C11.4305 15.4147 10.9029 15.4147 10.5774 15.0893L8.07742 12.5893C7.75198 12.2638 7.75198 11.7362 8.07742 11.4107L10.5774 8.91074C10.9029 8.5853 11.4305 8.5853 11.7559 8.91074C12.0814 9.23618 12.0814 9.76381 11.7559 10.0892L10.6785 11.1667L15.3333 11.1667C15.7936 11.1667 16.1667 11.5398 16.1667 12C16.1667 12.4602 15.7936 12.8333 15.3333 12.8333H10.6785L11.7559 13.9107C12.0814 14.2362 12.0814 14.7638 11.7559 15.0893Z" fill="#A7A7A7"/>
</svg>
