<svg width="32" height="32" viewBox="0 0 32 32" fill="none" xmlns="http://www.w3.org/2000/svg">
<g id="Icons">
<path id="Ellipse 120" d="M32 16C32 24.8366 24.8366 32 16 32C7.16344 32 0 24.8366 0 16C0 7.16344 7.16344 0 16 0C24.8366 0 32 7.16344 32 16Z" fill="#656565"/>
<path id="Color Vector" d="M20.6012 17.8317L21.1522 14.2395H17.7056V11.9084C17.7056 10.9256 18.187 9.96766 19.7308 9.96766H21.2978V6.90942C21.2978 6.90942 19.8757 6.66669 18.516 6.66669C15.6774 6.66669 13.8221 8.38708 13.8221 11.5016V14.2395H10.6667V17.8317H13.8221V26.5157C14.4548 26.615 15.1033 26.6667 15.7639 26.6667C16.4244 26.6667 17.0729 26.615 17.7056 26.5157V17.8317H20.6012Z" fill="white"/>
</g>
</svg>
