<svg width="32" height="32" viewBox="0 0 32 32" fill="none" xmlns="http://www.w3.org/2000/svg">
<path fill-rule="evenodd" clip-rule="evenodd" d="M16 8C13.8783 8 11.8434 8.84285 10.3431 10.3431C8.84285 11.8434 8 13.8783 8 16C8 17.0506 8.20693 18.0909 8.60896 19.0615C9.011 20.0321 9.60028 20.914 10.3431 21.6569C11.086 22.3997 11.9679 22.989 12.9385 23.391C13.9091 23.7931 14.9494 24 16 24C17.0506 24 18.0909 23.7931 19.0615 23.391C20.0321 22.989 20.914 22.3997 21.6569 21.6569C22.3997 20.914 22.989 20.0321 23.391 19.0615C23.7931 18.0909 24 17.0506 24 16C24 13.8783 23.1571 11.8434 21.6569 10.3431C20.1566 8.84285 18.1217 8 16 8ZM8.92893 8.92893C10.8043 7.05357 13.3478 6 16 6C18.6522 6 21.1957 7.05357 23.0711 8.92893C24.9464 10.8043 26 13.3478 26 16C26 17.3132 25.7413 18.6136 25.2388 19.8268C24.7362 21.0401 23.9997 22.1425 23.0711 23.0711C22.1425 23.9997 21.0401 24.7362 19.8268 25.2388C18.6136 25.7413 17.3132 26 16 26C14.6868 26 13.3864 25.7413 12.1732 25.2388C10.9599 24.7362 9.85752 23.9997 8.92893 23.0711C8.00035 22.1425 7.26375 21.0401 6.7612 19.8268C6.25866 18.6136 6 17.3132 6 16C6 13.3478 7.05357 10.8043 8.92893 8.92893ZM16 12C14.5281 12 13.4719 12.7063 13.1326 13.4263C12.8972 13.9259 12.3013 14.14 11.8017 13.9046C11.3021 13.6692 11.088 13.0733 11.3234 12.5737C12.0821 10.9637 13.9879 10 16 10C17.3004 10 18.5158 10.3939 19.4288 11.0787C20.3421 11.7637 21 12.7864 21 14C21 16.0701 19.1653 17.5081 17.1827 17.889L17.1824 17.8891C17.1095 17.9031 17.0516 17.9391 17.0203 17.9722C17.0062 17.9872 17.0013 17.9974 17.0002 17.9999C17.0001 18.0001 17 18.0002 17 18.0003C16.9998 18.5525 16.5522 19 16 19C15.4477 19 15 18.5523 15 18C15 16.8564 15.9107 16.0966 16.8056 15.9249C18.2788 15.6418 19 14.7298 19 14C19 13.5566 18.7629 13.0793 18.2287 12.6786C17.6942 12.2776 16.9096 12 16 12ZM15 21C15 20.4477 15.4477 20 16 20H16.01C16.5623 20 17.01 20.4477 17.01 21C17.01 21.5523 16.5623 22 16.01 22H16C15.4477 22 15 21.5523 15 21Z" fill="#656565"/>
</svg>
