<svg width="32" height="32" viewBox="0 0 32 32" fill="none" xmlns="http://www.w3.org/2000/svg">
<mask id="mask0_334_2572" style="mask-type:alpha" maskUnits="userSpaceOnUse" x="3" y="7" width="16" height="19">
<path d="M18.2667 16.4L16.6667 20.6666H9.73337L8.13337 26H3.33337L10.2667 7.33331H14.5334L18.2667 16.4Z" fill="#D9D9D9"/>
</mask>
<g mask="url(#mask0_334_2572)">
<path d="M19.9991 22.6308C20.0187 22.7485 20.0285 22.8662 20.0285 22.9839C20.0285 23.1016 19.9991 23.2193 19.9403 23.337C19.8814 23.4547 19.8029 23.5429 19.7049 23.6018C19.5087 23.7783 19.2929 23.8666 19.0575 23.8666C18.5867 23.8666 18.2728 23.6606 18.1159 23.2487C17.959 22.8367 16.674 19.6882 16.674 19.6882H8.72922L7.31681 23.2487C7.17949 23.6606 6.90485 23.8666 6.4929 23.8666C6.08094 23.8666 5.76707 23.6901 5.55129 23.337C5.49244 23.2193 5.46301 23.1114 5.46301 23.0133C5.46301 22.9152 5.49244 22.7877 5.55129 22.6308L10.8773 9.56593C11.2696 8.58509 11.7208 8.02601 12.2308 7.88869C12.3681 7.86907 12.5447 7.83965 12.7605 7.80042C13.1528 7.80042 13.4471 7.88869 13.6432 8.06524C13.9571 8.30064 14.271 8.80087 14.5849 9.56593L19.9991 22.6308ZM9.2883 18.1287H16.1444L12.7016 9.47766L9.2883 18.1287Z" fill="#656565"/>
</g>
<path d="M26.3576 23.0427C26.3707 23.1212 26.3772 23.1997 26.3772 23.2781C26.3772 23.3566 26.3576 23.4351 26.3184 23.5135C26.2791 23.592 26.2268 23.6508 26.1614 23.6901C26.0307 23.8078 25.8868 23.8666 25.7299 23.8666C25.416 23.8666 25.2067 23.7293 25.1021 23.4547L24.1409 21.081H18.8443L17.9027 23.4547C17.8112 23.7293 17.6281 23.8666 17.3535 23.8666C17.0788 23.8666 16.8696 23.7489 16.7257 23.5135C16.6865 23.4351 16.6669 23.3631 16.6669 23.2977C16.6669 23.2323 16.6865 23.1473 16.7257 23.0427L20.2764 14.3328C20.5379 13.6789 20.8387 13.3062 21.1787 13.2147C21.2703 13.2016 21.388 13.182 21.5319 13.1558C21.7934 13.1558 21.9896 13.2147 22.1204 13.3324C22.3296 13.4893 22.5389 13.8228 22.7481 14.3328L26.3576 23.0427ZM19.2171 20.0413H23.7878L21.4926 14.274L19.2171 20.0413Z" fill="#656565"/>
<path fill-rule="evenodd" clip-rule="evenodd" d="M26.5638 22.9836L26.5679 23.0077C26.5828 23.0976 26.5904 23.1878 26.5904 23.2781C26.5904 23.3935 26.5613 23.5044 26.509 23.6089C26.4577 23.7116 26.3854 23.799 26.2895 23.8615C26.1278 24.0018 25.9395 24.08 25.7297 24.08C25.5417 24.08 25.3676 24.0387 25.2203 23.942C25.0726 23.8451 24.9689 23.7036 24.9035 23.5329L23.997 21.2944H18.9891L18.1029 23.5281C18.047 23.6931 17.9574 23.8347 17.8246 23.9343C17.6892 24.0359 17.5273 24.08 17.3533 24.08C17.0039 24.08 16.7259 23.9232 16.5435 23.6248L16.5388 23.617L16.5347 23.6089C16.4855 23.5105 16.4534 23.4056 16.4534 23.2978C16.4534 23.1949 16.483 23.0819 16.5258 22.9678L16.5279 22.9622L20.0781 14.2536C20.0782 14.2534 20.078 14.2539 20.0781 14.2536C20.2134 13.9156 20.3636 13.6375 20.532 13.4289C20.7006 13.2199 20.8963 13.0697 21.1231 13.0087L21.1356 13.0053L21.1484 13.0035C21.2362 12.991 21.351 12.9719 21.4935 12.9459L21.5124 12.9425H21.5317C21.8171 12.9425 22.071 13.0054 22.2556 13.1674C22.5115 13.3633 22.7363 13.7424 22.9451 14.2515C22.9452 14.2516 22.9451 14.2514 22.9451 14.2515L26.5638 22.9836ZM22.7479 14.3328C22.5387 13.8228 22.3294 13.4893 22.1202 13.3324C21.9894 13.2147 21.7932 13.1558 21.5317 13.1558C21.3878 13.182 21.2701 13.2016 21.1786 13.2147C20.8386 13.3062 20.5378 13.679 20.2762 14.3328L16.7256 23.0427C16.6863 23.1474 16.6667 23.2324 16.6667 23.2978C16.6667 23.3631 16.6863 23.4351 16.7256 23.5135C16.8694 23.7489 17.0787 23.8666 17.3533 23.8666C17.6279 23.8666 17.811 23.7293 17.9026 23.4547L18.8442 21.081H24.1407L25.102 23.4547C25.2066 23.7293 25.4158 23.8666 25.7297 23.8666C25.8866 23.8666 26.0305 23.8078 26.1613 23.6901C26.2267 23.6509 26.279 23.592 26.3182 23.5135C26.3574 23.4351 26.377 23.3566 26.377 23.2781C26.377 23.1997 26.3705 23.1212 26.3574 23.0427L22.7479 14.3328ZM23.7876 20.0414L21.4924 14.274L19.2169 20.0414H23.7876ZM19.5304 19.828H23.4731L21.4933 14.8531L19.5304 19.828Z" fill="#656565"/>
</svg>
