<svg width="32" height="32" viewBox="0 0 32 32" fill="none" xmlns="http://www.w3.org/2000/svg">
<path fill-rule="evenodd" clip-rule="evenodd" d="M13 6C13.5523 6 14 6.44772 14 7V8H16.7321C16.7439 7.99979 16.7557 7.99979 16.7675 8H19C19.5523 8 20 8.44772 20 9C20 9.55228 19.5523 10 19 10H17.5779C17.0029 12.683 15.862 15.1553 14.2863 17.2862C14.4429 17.4624 14.6032 17.6354 14.7672 17.8052C15.1509 18.2025 15.14 18.8355 14.7428 19.2192C14.3455 19.6029 13.7125 19.592 13.3288 19.1948C13.2176 19.0797 13.108 18.9633 12.9999 18.8457C11.4284 20.5576 9.54709 21.9801 7.44495 23.0246C6.95035 23.2703 6.35018 23.0686 6.10444 22.574C5.85871 22.0793 6.06045 21.4792 6.55505 21.2334C8.52098 20.2567 10.2707 18.9105 11.7136 17.2862C10.8234 16.0819 10.0767 14.7743 9.49101 13.3896C9.27585 12.8809 9.51377 12.2942 10.0224 12.079C10.5311 11.8638 11.1178 12.1018 11.333 12.6104C11.7849 13.6788 12.3439 14.6959 13 15.6467C14.1646 13.9597 15.032 12.0521 15.5268 10H7C6.44771 10 6 9.55228 6 9C6 8.44772 6.44771 8 7 8H12V7C12 6.44772 12.4477 6 13 6ZM20 14C20.3788 14 20.725 14.214 20.8944 14.5528L24.3854 21.5348C24.3919 21.5471 24.3981 21.5596 24.4041 21.5722L25.8944 24.5528C26.1414 25.0468 25.9412 25.6474 25.4472 25.8944C24.9532 26.1414 24.3526 25.9412 24.1056 25.4472L22.882 23H17.118L15.8944 25.4472C15.6474 25.9412 15.0468 26.1414 14.5528 25.8944C14.0588 25.6474 13.8586 25.0468 14.1056 24.5528L15.5959 21.5722C15.6019 21.5596 15.6081 21.5471 15.6146 21.5348L19.1056 14.5528C19.275 14.214 19.6212 14 20 14ZM18.118 21H21.882L20 17.2361L18.118 21Z" fill="#656565"/>
</svg>
