<svg width="16" height="16" viewBox="0 0 16 16" fill="none" xmlns="http://www.w3.org/2000/svg">
<path fill-rule="evenodd" clip-rule="evenodd" d="M8.00662 0.0996094C3.57917 0.0996094 0 3.70516 0 8.16572C0 11.7313 2.29329 14.7495 5.4747 15.8177C5.87246 15.898 6.01816 15.6441 6.01816 15.4306C6.01816 15.2436 6.00505 14.6026 6.00505 13.9348C3.7778 14.4156 3.31399 12.9732 3.31399 12.9732C2.95606 12.0384 2.42572 11.7982 2.42572 11.7982C1.69674 11.304 2.47882 11.304 2.47882 11.304C3.28744 11.3575 3.71175 12.132 3.71175 12.132C4.42745 13.3605 5.58074 13.0134 6.04471 12.7997C6.11092 12.2788 6.32315 11.9183 6.5485 11.718C4.77211 11.531 2.90313 10.8366 2.90313 7.7383C2.90313 6.85691 3.22107 6.1358 3.72486 5.57497C3.64538 5.3747 3.36693 4.54657 3.80451 3.43819C3.80451 3.43819 4.48055 3.22448 6.00488 4.26615C6.6575 4.08959 7.33054 3.99977 8.00662 3.99901C8.68266 3.99901 9.37181 4.09259 10.0082 4.26615C11.5327 3.22448 12.2087 3.43819 12.2087 3.43819C12.6463 4.54657 12.3677 5.3747 12.2882 5.57497C12.8053 6.1358 13.1101 6.85691 13.1101 7.7383C13.1101 10.8366 11.2411 11.5176 9.45146 11.718C9.74318 11.9717 9.99492 12.4524 9.99492 13.2137C9.99492 14.2953 9.98181 15.1634 9.98181 15.4304C9.98181 15.6441 10.1277 15.898 10.5253 15.8178C13.7067 14.7493 16 11.7313 16 8.16572C16.0131 3.70516 12.4208 0.0996094 8.00662 0.0996094Z" fill="white"/>
</svg>
