<svg width="24" height="24" viewBox="0 0 24 24" fill="none" xmlns="http://www.w3.org/2000/svg">
<path fill-rule="evenodd" clip-rule="evenodd" d="M5.90831 7.43749L3.67498 5.20416L4.84998 4.02083L19.625 18.8042L18.45 19.9792L15.6 17.1292C14.4833 17.5708 13.2666 17.8125 12 17.8125C7.83331 17.8125 4.27498 15.2208 2.83331 11.5625C3.47498 9.92083 4.54998 8.50416 5.90831 7.43749ZM12 6.97916C15.1583 6.97916 17.975 8.75416 19.35 11.5625C18.8583 12.5792 18.1666 13.4542 17.3416 14.1625L18.5166 15.3375C19.675 14.3125 20.5916 13.0292 21.1666 11.5625C19.725 7.90416 16.1666 5.31249 12 5.31249C10.9416 5.31249 9.92498 5.47916 8.96665 5.78749L10.3416 7.16249C10.8833 7.05416 11.4333 6.97916 12 6.97916ZM11.1083 7.92916L12.8333 9.65416C13.3083 9.86249 13.6916 10.2458 13.9 10.7208L15.625 12.4458C15.6916 12.1625 15.7416 11.8625 15.7416 11.5542C15.75 9.48749 14.0666 7.81249 12 7.81249C11.6916 7.81249 11.4 7.85416 11.1083 7.92916ZM9.92498 11.4542L12.1 13.6292C12.0666 13.6375 12.0333 13.6458 12 13.6458C10.85 13.6458 9.91665 12.7125 9.91665 11.5625C9.91665 11.5417 9.91873 11.525 9.92081 11.5083C9.9229 11.4917 9.92498 11.475 9.92498 11.4542ZM8.54998 10.0792L7.09165 8.62083C6.08331 9.3875 5.23331 10.3708 4.64998 11.5625C6.02498 14.3708 8.84165 16.1458 12 16.1458C12.7916 16.1458 13.5583 16.0292 14.2916 15.8292L13.475 15.0125C13.025 15.2042 12.525 15.3125 12 15.3125C9.93331 15.3125 8.24998 13.6292 8.24998 11.5625C8.24998 11.0375 8.35831 10.5375 8.54998 10.0792Z" fill="#A7A7A7"/>
</svg>
