<svg width="32" height="32" viewBox="0 0 32 32" fill="none" xmlns="http://www.w3.org/2000/svg">
<path fill-rule="evenodd" clip-rule="evenodd" d="M16 8C13.8783 8 11.8434 8.84285 10.3431 10.3431C8.84285 11.8434 8 13.8783 8 16C8 17.0506 8.20693 18.0909 8.60896 19.0615C9.011 20.0321 9.60028 20.914 10.3431 21.6569C11.086 22.3997 11.9679 22.989 12.9385 23.391C13.9091 23.7931 14.9494 24 16 24C17.0506 24 18.0909 23.7931 19.0615 23.391C20.0321 22.989 20.914 22.3997 21.6569 21.6569C22.3997 20.914 22.989 20.0321 23.391 19.0615C23.7931 18.0909 24 17.0506 24 16C24 13.8783 23.1571 11.8434 21.6569 10.3431C20.1566 8.84285 18.1217 8 16 8ZM8.92893 8.92893C10.8043 7.05357 13.3478 6 16 6C18.6522 6 21.1957 7.05357 23.0711 8.92893C24.9464 10.8043 26 13.3478 26 16C26 17.3132 25.7413 18.6136 25.2388 19.8268C24.7362 21.0401 23.9997 22.1425 23.0711 23.0711C22.1425 23.9997 21.0401 24.7362 19.8268 25.2388C18.6136 25.7413 17.3132 26 16 26C14.6868 26 13.3864 25.7413 12.1732 25.2388C10.9599 24.7362 9.85752 23.9997 8.92893 23.0711C8.00035 22.1425 7.26375 21.0401 6.7612 19.8268C6.25866 18.6136 6 17.3132 6 16C6 13.3478 7.05357 10.8043 8.92893 8.92893ZM12 14C12 13.4477 12.4477 13 13 13H13.01C13.5623 13 14.01 13.4477 14.01 14C14.01 14.5523 13.5623 15 13.01 15H13C12.4477 15 12 14.5523 12 14ZM18 14C18 13.4477 18.4477 13 19 13H19.01C19.5623 13 20.01 13.4477 20.01 14C20.01 14.5523 19.5623 15 19.01 15H19C18.4477 15 18 14.5523 18 14ZM12.4648 18.121C12.8553 17.7304 13.4884 17.7303 13.879 18.1208C14.4416 18.6832 15.2045 18.9991 16 18.9991C16.7955 18.9991 17.5584 18.6832 18.121 18.1208C18.5116 17.7303 19.1447 17.7304 19.5352 18.121C19.9257 18.5116 19.9256 19.1447 19.535 19.5352C18.5974 20.4726 17.3258 20.9991 16 20.9991C14.6742 20.9991 13.4026 20.4726 12.465 19.5352C12.0744 19.1447 12.0743 18.5116 12.4648 18.121Z" fill="#656565"/>
</svg>
