<svg width="24" height="24" viewBox="0 0 24 24" fill="none" xmlns="http://www.w3.org/2000/svg">
<path fill-rule="evenodd" clip-rule="evenodd" d="M12 2C12.5523 2 13 2.44772 13 3V4C13 4.55228 12.5523 5 12 5C11.4477 5 11 4.55228 11 4V3C11 2.44772 11.4477 2 12 2ZM4.92889 4.92889C5.31942 4.53837 5.95258 4.53837 6.34311 4.92889L7.05011 5.63589C7.44063 6.02642 7.44063 6.65958 7.05011 7.05011C6.65958 7.44063 6.02642 7.44063 5.63589 7.05011L4.92889 6.34311C4.53837 5.95258 4.53837 5.31942 4.92889 4.92889ZM19.0711 4.92889C19.4616 5.31942 19.4616 5.95258 19.0711 6.34311L18.3641 7.05011C17.9736 7.44063 17.3404 7.44063 16.9499 7.05011C16.5594 6.65958 16.5594 6.02642 16.9499 5.63589L17.6569 4.92889C18.0474 4.53837 18.6806 4.53837 19.0711 4.92889ZM12 8.00093C11.2089 8.00093 10.4356 8.2355 9.77783 8.67498C9.12006 9.11446 8.60736 9.73911 8.30458 10.47C8.0018 11.2008 7.92253 12.005 8.07678 12.7809C8.231 13.5566 8.61172 14.2692 9.17081 14.8286C9.17094 14.8287 9.17068 14.8285 9.17081 14.8286L9.71846 15.3752C9.9113 15.5681 10.085 15.7778 10.2368 16H13.7632C13.9157 15.7769 14.0889 15.568 14.2808 15.376L14.8288 14.829C14.8289 14.8289 14.8287 14.829 14.8288 14.829C15.388 14.2696 15.769 13.5567 15.9232 12.7809C16.0775 12.005 15.9982 11.2008 15.6954 10.47C15.3926 9.73911 14.8799 9.11446 14.2222 8.67498C13.5644 8.2355 12.7911 8.00093 12 8.00093ZM13.0252 18H10.9748C10.9915 18.1551 11 18.3116 11 18.469V19C11 19.2652 11.1054 19.5196 11.2929 19.7071C11.4804 19.8946 11.7348 20 12 20C12.2652 20 12.5196 19.8946 12.7071 19.7071C12.8946 19.5196 13 19.2652 13 19V18.4691C13 18.4691 13 18.4692 13 18.4691C13 18.3122 13.0084 18.1555 13.0252 18ZM8.74938 17.4072C8.75769 17.4258 8.76656 17.4441 8.77596 17.4621C8.92203 17.7743 9 18.1177 9 18.469V19C9 19.7957 9.31607 20.5587 9.87868 21.1213C10.4413 21.6839 11.2043 22 12 22C12.7957 22 13.5587 21.6839 14.1213 21.1213C14.6839 20.5587 15 19.7957 15 19V18.469C15 18.1572 15.0613 17.8484 15.1806 17.5603C15.2999 17.2723 15.4746 17.0106 15.695 16.7902C15.695 16.7903 15.6951 16.7902 15.695 16.7902L16.2432 16.243C17.0822 15.4038 17.6534 14.3347 17.8848 13.1709C18.1162 12.0071 17.9973 10.8007 17.5431 9.70447C17.089 8.6082 16.3199 7.67122 15.3333 7.012C14.3466 6.35279 13.1866 6.00093 12 6.00093C10.8134 6.00093 9.6534 6.35279 8.66674 7.012C7.68008 7.67122 6.91105 8.6082 6.45687 9.70447C6.0027 10.8007 5.88379 12.007 6.11517 13.1709C6.34656 14.3347 6.91784 15.4038 7.7568 16.243L8.30489 16.7901C8.30478 16.79 8.30501 16.7902 8.30489 16.7901C8.48667 16.972 8.63636 17.181 8.74938 17.4072ZM2 12C2 11.4477 2.44772 11 3 11H4C4.55228 11 5 11.4477 5 12C5 12.5523 4.55228 13 4 13H3C2.44772 13 2 12.5523 2 12ZM19 12C19 11.4477 19.4477 11 20 11H21C21.5523 11 22 11.4477 22 12C22 12.5523 21.5523 13 21 13H20C19.4477 13 19 12.5523 19 12Z" fill="#656565"/>
</svg>
