<svg width="32" height="32" viewBox="0 0 32 32" fill="none" xmlns="http://www.w3.org/2000/svg">
<path fill-rule="evenodd" clip-rule="evenodd" d="M16 6C16.5523 6 17 6.44772 17 7V8C17 8.55228 16.5523 9 16 9C15.4477 9 15 8.55228 15 8V7C15 6.44772 15.4477 6 16 6ZM8.92889 8.92889C9.31942 8.53837 9.95258 8.53837 10.3431 8.92889L11.0501 9.63589C11.4406 10.0264 11.4406 10.6596 11.0501 11.0501C10.6596 11.4406 10.0264 11.4406 9.63589 11.0501L8.92889 10.3431C8.53837 9.95258 8.53837 9.31942 8.92889 8.92889ZM23.0711 8.92889C23.4616 9.31942 23.4616 9.95258 23.0711 10.3431L22.3641 11.0501C21.9736 11.4406 21.3404 11.4406 20.9499 11.0501C20.5594 10.6596 20.5594 10.0264 20.9499 9.63589L21.6569 8.92889C22.0474 8.53837 22.6806 8.53837 23.0711 8.92889ZM16 12.0009C15.2089 12.0009 14.4356 12.2355 13.7778 12.675C13.1201 13.1145 12.6074 13.7391 12.3046 14.47C12.0018 15.2008 11.9225 16.005 12.0768 16.7809C12.231 17.5566 12.6117 18.2692 13.1708 18.8286C13.1709 18.8287 13.1707 18.8285 13.1708 18.8286L13.7185 19.3752C13.9113 19.5681 14.085 19.7778 14.2368 20H17.7632C17.9157 19.7769 18.0889 19.568 18.2808 19.376L18.8288 18.829C18.8289 18.8289 18.8287 18.829 18.8288 18.829C19.388 18.2696 19.769 17.5567 19.9232 16.7809C20.0775 16.005 19.9982 15.2008 19.6954 14.47C19.3926 13.7391 18.8799 13.1145 18.2222 12.675C17.5644 12.2355 16.7911 12.0009 16 12.0009ZM17.0252 22H14.9748C14.9915 22.1551 15 22.3116 15 22.469V23C15 23.2652 15.1054 23.5196 15.2929 23.7071C15.4804 23.8946 15.7348 24 16 24C16.2652 24 16.5196 23.8946 16.7071 23.7071C16.8946 23.5196 17 23.2652 17 23V22.4691C17 22.4691 17 22.4692 17 22.4691C17 22.3122 17.0084 22.1555 17.0252 22ZM12.7494 21.4072C12.7577 21.4258 12.7666 21.4441 12.776 21.4621C12.922 21.7743 13 22.1177 13 22.469V23C13 23.7957 13.3161 24.5587 13.8787 25.1213C14.4413 25.6839 15.2043 26 16 26C16.7957 26 17.5587 25.6839 18.1213 25.1213C18.6839 24.5587 19 23.7957 19 23V22.469C19 22.1572 19.0613 21.8484 19.1806 21.5603C19.2999 21.2723 19.4746 21.0106 19.695 20.7902C19.695 20.7903 19.6951 20.7902 19.695 20.7902L20.2432 20.243C21.0822 19.4038 21.6534 18.3347 21.8848 17.1709C22.1162 16.0071 21.9973 14.8007 21.5431 13.7045C21.089 12.6082 20.3199 11.6712 19.3333 11.012C18.3466 10.3528 17.1866 10.0009 16 10.0009C14.8134 10.0009 13.6534 10.3528 12.6667 11.012C11.6801 11.6712 10.911 12.6082 10.4569 13.7045C10.0027 14.8007 9.88379 16.007 10.1152 17.1709C10.3466 18.3347 10.9178 19.4038 11.7568 20.243L12.3049 20.7901C12.3048 20.79 12.305 20.7902 12.3049 20.7901C12.4867 20.972 12.6364 21.181 12.7494 21.4072ZM6 16C6 15.4477 6.44772 15 7 15H8C8.55228 15 9 15.4477 9 16C9 16.5523 8.55228 17 8 17H7C6.44772 17 6 16.5523 6 16ZM23 16C23 15.4477 23.4477 15 24 15H25C25.5523 15 26 15.4477 26 16C26 16.5523 25.5523 17 25 17H24C23.4477 17 23 16.5523 23 16Z" fill="#656565"/>
</svg>
