<svg width="32" height="32" viewBox="0 0 32 32" fill="none" xmlns="http://www.w3.org/2000/svg">
<path fill-rule="evenodd" clip-rule="evenodd" d="M16 2.66669C16.7364 2.66669 17.3334 3.26364 17.3334 4.00002V5.33335C17.3334 6.06973 16.7364 6.66669 16 6.66669C15.2636 6.66669 14.6667 6.06973 14.6667 5.33335V4.00002C14.6667 3.26364 15.2636 2.66669 16 2.66669ZM6.57188 6.57188C7.09258 6.05118 7.9368 6.05118 8.4575 6.57188L9.40016 7.51454C9.92086 8.03524 9.92086 8.87946 9.40016 9.40016C8.87946 9.92086 8.03524 9.92086 7.51454 9.40016L6.57188 8.4575C6.05118 7.9368 6.05118 7.09258 6.57188 6.57188ZM25.4282 6.57188C25.9489 7.09258 25.9489 7.9368 25.4282 8.4575L24.4855 9.40016C23.9648 9.92086 23.1206 9.92086 22.5999 9.40016C22.0792 8.87946 22.0792 8.03524 22.5999 7.51454L23.5425 6.57188C24.0632 6.05118 24.9075 6.05118 25.4282 6.57188ZM16 10.6679C14.9452 10.6679 13.9142 10.9807 13.0371 11.5667C12.1601 12.1526 11.4765 12.9855 11.0728 13.96C10.6691 14.9344 10.5634 16.0067 10.7691 17.0412C10.9747 18.0755 11.4823 19.0256 12.2278 19.7715C12.2279 19.7717 12.2276 19.7713 12.2278 19.7715L12.958 20.5004C13.2151 20.7575 13.4466 21.0371 13.6491 21.3334H18.3509C18.5542 21.0359 18.7852 20.7573 19.0411 20.5013L19.7718 19.772C19.7718 19.7719 19.7717 19.7721 19.7718 19.772C20.5174 19.0261 21.0253 18.0756 21.231 17.0412C21.4367 16.0067 21.331 14.9344 20.9272 13.96C20.5235 12.9855 19.8399 12.1526 18.9629 11.5667C18.0859 10.9807 17.0548 10.6679 16 10.6679ZM17.3669 24H14.6331C14.6554 24.2068 14.6667 24.4155 14.6667 24.6254V25.3334C14.6667 25.687 14.8072 26.0261 15.0572 26.2762C15.3073 26.5262 15.6464 26.6667 16 26.6667C16.3536 26.6667 16.6928 26.5262 16.9428 26.2762C17.1929 26.0261 17.3334 25.687 17.3334 25.3334V24.6255C17.3334 24.6255 17.3334 24.6256 17.3334 24.6255C17.3333 24.4162 17.3446 24.2073 17.3669 24ZM11.6659 23.2096C11.6769 23.2344 11.6888 23.2589 11.7013 23.2829C11.8961 23.6991 12 24.157 12 24.6254V25.3334C12 26.3942 12.4214 27.4116 13.1716 28.1618C13.9217 28.9119 14.9392 29.3334 16 29.3334C17.0609 29.3334 18.0783 28.9119 18.8284 28.1618C19.5786 27.4116 20 26.3942 20 25.3334V24.6254C20 24.2097 20.0818 23.7978 20.2408 23.4138C20.3998 23.0298 20.6329 22.6809 20.9267 22.387C20.9266 22.387 20.9268 22.3869 20.9267 22.387L21.6576 21.6574C22.7762 20.5385 23.5379 19.113 23.8465 17.5612C24.155 16.0094 23.9964 14.401 23.3909 12.9393C22.7853 11.4776 21.7599 10.2283 20.4444 9.34936C19.1288 8.4704 17.5822 8.00126 16 8.00126C14.4179 8.00126 12.8712 8.4704 11.5557 9.34936C10.2401 10.2283 9.21475 11.4776 8.60919 12.9393C8.00362 14.401 7.84507 16.0094 8.15358 17.5612C8.46209 19.113 9.22381 20.5385 10.3424 21.6574L11.0732 22.3868C11.0731 22.3867 11.0734 22.387 11.0732 22.3868C11.3156 22.6293 11.5152 22.908 11.6659 23.2096ZM2.66669 16C2.66669 15.2636 3.26364 14.6667 4.00002 14.6667H5.33335C6.06973 14.6667 6.66669 15.2636 6.66669 16C6.66669 16.7364 6.06973 17.3334 5.33335 17.3334H4.00002C3.26364 17.3334 2.66669 16.7364 2.66669 16ZM25.3334 16C25.3334 15.2636 25.9303 14.6667 26.6667 14.6667H28C28.7364 14.6667 29.3334 15.2636 29.3334 16C29.3334 16.7364 28.7364 17.3334 28 17.3334H26.6667C25.9303 17.3334 25.3334 16.7364 25.3334 16Z" fill="#656565"/>
</svg>
