<svg width="14" height="14" viewBox="0 0 14 14" fill="none" xmlns="http://www.w3.org/2000/svg">
<g id="Group 239">
<path id="Vector" d="M7.0041 1.26079C8.87551 1.26079 9.09713 1.269 9.83311 1.30182C10.5171 1.3319 10.8865 1.44677 11.1327 1.54249C11.4583 1.66829 11.6936 1.82145 11.9371 2.06486C12.1833 2.311 12.3338 2.54347 12.4596 2.86892C12.5554 3.11506 12.6703 3.48701 12.7004 4.168C12.7332 4.90643 12.7415 5.12796 12.7415 6.9959C12.7415 8.86658 12.7332 9.08811 12.7004 9.8238C12.6703 10.5075 12.5554 10.8767 12.4596 11.1229C12.3338 11.4483 12.1806 11.6835 11.9371 11.9269C11.6908 12.1731 11.4583 12.3235 11.1327 12.4493C10.8865 12.545 10.5144 12.6599 9.83311 12.69C9.09439 12.7228 8.87278 12.731 7.0041 12.731C5.1327 12.731 4.91108 12.7228 4.1751 12.69C3.49111 12.6599 3.12175 12.545 2.87551 12.4493C2.54993 12.3235 2.31464 12.1703 2.07114 11.9269C1.8249 11.6808 1.67442 11.4483 1.54856 11.1229C1.4528 10.8767 1.33789 10.5048 1.3078 9.8238C1.27497 9.08537 1.26676 8.86384 1.26676 6.9959C1.26676 5.12522 1.27497 4.90369 1.3078 4.168C1.33789 3.48427 1.4528 3.11506 1.54856 2.86892C1.67442 2.54347 1.82763 2.30826 2.07114 2.06486C2.31737 1.81871 2.54993 1.66829 2.87551 1.54249C3.12175 1.44677 3.49384 1.3319 4.1751 1.30182C4.91108 1.269 5.1327 1.26079 7.0041 1.26079ZM7.0041 0C5.1026 0 4.86457 0.00820473 4.11765 0.0410236C3.37346 0.0738426 2.86183 0.194179 2.4186 0.366478C1.95622 0.546982 1.56498 0.784919 1.17647 1.17601C0.785226 1.56437 0.547196 1.95546 0.366621 2.41493C0.194254 2.86072 0.0738714 3.36941 0.0410397 4.1133C0.00820794 4.86267 0 5.10061 0 7.00137C0 8.90213 0.00820794 9.14007 0.0410397 9.8867C0.0738714 10.6306 0.194254 11.142 0.366621 11.5851C0.547196 12.0473 0.785226 12.4384 1.17647 12.8267C1.56498 13.2151 1.95622 13.4558 2.41587 13.6335C2.86183 13.8058 3.37072 13.9262 4.11491 13.959C4.86183 13.9918 5.09986 14 7.00137 14C8.90287 14 9.1409 13.9918 9.88783 13.959C10.632 13.9262 11.1436 13.8058 11.5869 13.6335C12.0465 13.4558 12.4378 13.2151 12.8263 12.8267C13.2148 12.4384 13.4555 12.0473 13.6334 11.5878C13.8057 11.142 13.9261 10.6333 13.959 9.88943C13.9918 9.1428 14 8.90487 14 7.0041C14 5.10334 13.9918 4.8654 13.959 4.11877C13.9261 3.37488 13.8057 2.86345 13.6334 2.42039C13.461 1.95546 13.223 1.56437 12.8317 1.17601C12.4432 0.787654 12.052 0.546982 11.5923 0.369213C11.1464 0.196913 10.6375 0.0765775 9.8933 0.0437586C9.14364 0.00820473 8.90561 0 7.0041 0Z" fill="white"/>
<path id="Vector_2" d="M7 3.5C5.06768 3.5 3.5 5.06768 3.5 7C3.5 8.93232 5.06768 10.5 7 10.5C8.93232 10.5 10.5 8.93232 10.5 7C10.5 5.06768 8.93232 3.5 7 3.5ZM7 9.27034C5.74639 9.27034 4.72966 8.25361 4.72966 7C4.72966 5.74639 5.74639 4.72966 7 4.72966C8.25361 4.72966 9.27034 5.74639 9.27034 7C9.27034 8.25361 8.25361 9.27034 7 9.27034Z" fill="white"/>
<path id="Vector_3" d="M11.6 3.3C11.6 3.743 11.2404 4.1 10.8 4.1C10.357 4.1 10 3.74039 10 3.3C10 2.857 10.3596 2.5 10.8 2.5C11.2404 2.5 11.6 2.85961 11.6 3.3Z" fill="white"/>
</g>
</svg>
