<svg width="32" height="32" viewBox="0 0 32 32" fill="none" xmlns="http://www.w3.org/2000/svg">
<path fill-rule="evenodd" clip-rule="evenodd" d="M17.4773 7.45272C18.4203 6.54193 19.6833 6.03796 20.9943 6.04935C22.3053 6.06074 23.5593 6.58659 24.4864 7.51363C25.4134 8.44067 25.9393 9.69473 25.9506 11.0057C25.962 12.3167 25.4581 13.5797 24.5473 14.5227L24.5351 14.5351L20.5351 18.5351C19.5975 19.4725 18.3258 19.9992 17 19.9992C15.6742 19.9992 14.4026 19.4726 13.465 18.5352C13.0744 18.1448 13.0743 17.5116 13.4648 17.121C13.8552 16.7304 14.4884 16.7303 14.879 17.1208C15.4416 17.6832 16.2045 17.9992 17 17.9992C17.7954 17.9992 18.5583 17.6833 19.1209 17.1209C19.1209 17.1209 19.1208 17.1209 19.1209 17.1209L23.1143 13.1275C23.6572 12.5623 23.9575 11.807 23.9507 11.0231C23.9439 10.2365 23.6284 9.48407 23.0722 8.92784C22.5159 8.37162 21.7635 8.05611 20.9769 8.04928C20.193 8.04247 19.4377 8.34276 18.8725 8.8857L17.7791 9.97912C17.3886 10.3696 16.7554 10.3696 16.3649 9.97912C15.9744 9.58859 15.9744 8.95543 16.3649 8.5649L17.4649 7.4649L17.4773 7.45272ZM11.465 13.4648C12.4026 12.5274 13.6742 12.0009 15 12.0009C16.3258 12.0009 17.5974 12.5274 18.535 13.4648C18.9256 13.8553 18.9257 14.4884 18.5352 14.879C18.1447 15.2696 17.5116 15.2697 17.121 14.8792C16.5584 14.3168 15.7955 14.0009 15 14.0009C14.2045 14.0009 13.4417 14.3168 12.8791 14.8791C12.8791 14.8792 12.8791 14.8791 12.8791 14.8791L8.8791 18.8791L8.8667 18.8913C8.58017 19.168 8.35162 19.4991 8.1944 19.8651C8.03717 20.2311 7.95441 20.6248 7.95095 21.0231C7.94749 21.4214 8.02339 21.8165 8.17424 22.1852C8.32508 22.5539 8.54784 22.8888 8.82952 23.1705C9.11119 23.4522 9.44615 23.6749 9.81484 23.8258C10.1835 23.9766 10.5786 24.0525 10.9769 24.0491C11.3752 24.0456 11.7689 23.9628 12.1349 23.8056C12.5009 23.6484 12.832 23.4198 13.1087 23.1333L13.1212 23.1206L14.2232 22.0196C14.6139 21.6292 15.2471 21.6295 15.6374 22.0202C16.0278 22.4109 16.0275 23.0441 15.6368 23.4344L14.5407 24.5295C14.0808 25.0039 13.5314 25.3824 12.9243 25.6432C12.3143 25.9053 11.6582 26.0432 10.9943 26.049C10.3304 26.0547 9.67199 25.9282 9.05751 25.6768C8.44303 25.4254 7.88477 25.0542 7.4153 24.5847C6.94584 24.1152 6.57457 23.557 6.32317 22.9425C6.07176 22.328 5.94526 21.6696 5.95102 21.0057C5.95679 20.3418 6.09473 19.6857 6.35677 19.0757C6.61761 18.4685 6.99622 17.919 7.47068 17.4591L11.465 13.4648Z" fill="#656565"/>
</svg>
