<svg width="14" height="14" viewBox="0 0 14 14" fill="none" xmlns="http://www.w3.org/2000/svg">
<path d="M3.40991 13.5H0.714732V4.82057H3.40991V13.5ZM2.06087 3.63661C1.19904 3.63661 0.5 2.92276 0.5 2.06091C0.5 1.64693 0.664448 1.24991 0.957168 0.957179C1.24989 0.664452 1.6469 0.5 2.06087 0.5C2.47484 0.5 2.87185 0.664452 3.16457 0.957179C3.45729 1.24991 3.62174 1.64693 3.62174 2.06091C3.62174 2.92276 2.92241 3.63661 2.06087 3.63661ZM13.4971 13.5H10.8077V9.27491C10.8077 8.26796 10.7874 6.97664 9.40645 6.97664C8.00518 6.97664 7.79045 8.07064 7.79045 9.20236V13.5H5.09817V4.82057H7.68308V6.00452H7.7208C8.08062 5.32259 8.95958 4.60293 10.2709 4.60293C12.9986 4.60293 13.5 6.39917 13.5 8.73226V13.5H13.4971Z" fill="white"/>
</svg>
