<svg width="24" height="24" viewBox="0 0 24 24" fill="none" xmlns="http://www.w3.org/2000/svg">
<path fill-rule="evenodd" clip-rule="evenodd" d="M13.4773 3.45272C14.4203 2.54193 15.6833 2.03796 16.9943 2.04935C18.3053 2.06074 19.5593 2.58659 20.4864 3.51363C21.4134 4.44067 21.9393 5.69473 21.9506 7.00572C21.962 8.3167 21.4581 9.57971 20.5473 10.5227L20.5351 10.5351L16.5351 14.5351C15.5975 15.4725 14.3258 15.9992 13 15.9992C11.6742 15.9992 10.4026 15.4726 9.46499 14.5352C9.07441 14.1448 9.07431 13.5116 9.46478 13.121C9.85524 12.7304 10.4884 12.7303 10.879 13.1208C11.4416 13.6832 12.2045 13.9992 13 13.9992C13.7954 13.9992 14.5583 13.6833 15.1209 13.1209C15.1209 13.1209 15.1208 13.1209 15.1209 13.1209L19.1143 9.12746C19.6572 8.56229 19.9575 7.80698 19.9507 7.0231C19.9439 6.23651 19.6284 5.48407 19.0722 4.92784C18.5159 4.37162 17.7635 4.05611 16.9769 4.04928C16.193 4.04247 15.4377 4.34276 14.8725 4.8857L13.7791 5.97912C13.3886 6.36964 12.7554 6.36964 12.3649 5.97912C11.9744 5.58859 11.9744 4.95543 12.3649 4.5649L13.4649 3.4649L13.4773 3.45272ZM7.46499 9.4648C8.40263 8.52744 9.67417 8.00087 11 8.00087C12.3258 8.00087 13.5974 8.52744 14.535 9.4648C14.9256 9.85526 14.9257 10.4884 14.5352 10.879C14.1447 11.2696 13.5116 11.2697 13.121 10.8792C12.5584 10.3168 11.7955 10.0009 11 10.0009C10.2045 10.0009 9.44167 10.3168 8.8791 10.8791C8.87906 10.8792 8.87913 10.8791 8.8791 10.8791L4.8791 14.8791L4.8667 14.8913C4.58017 15.168 4.35162 15.4991 4.1944 15.8651C4.03717 16.2311 3.95441 16.6248 3.95095 17.0231C3.94749 17.4214 4.02339 17.8165 4.17424 18.1852C4.32508 18.5539 4.54784 18.8888 4.82952 19.1705C5.11119 19.4522 5.44615 19.6749 5.81484 19.8258C6.18353 19.9766 6.57857 20.0525 6.9769 20.0491C7.37524 20.0456 7.7689 19.9628 8.13491 19.8056C8.50093 19.6484 8.83196 19.4198 9.1087 19.1333L9.1212 19.1206L10.2232 18.0196C10.6139 17.6292 11.2471 17.6295 11.6374 18.0202C12.0278 18.4109 12.0275 19.0441 11.6368 19.4344L10.5407 20.5295C10.0808 21.0039 9.53144 21.3824 8.9243 21.6432C8.31428 21.9053 7.65818 22.0432 6.99428 22.049C6.33039 22.0547 5.67199 21.9282 5.05751 21.6768C4.44303 21.4254 3.88477 21.0542 3.4153 20.5847C2.94584 20.1152 2.57457 19.557 2.32317 18.9425C2.07176 18.328 1.94526 17.6696 1.95102 17.0057C1.95679 16.3418 2.09473 15.6857 2.35677 15.0757C2.61761 14.4685 2.99622 13.919 3.47068 13.4591L7.46499 9.4648Z" fill="#656565"/>
</svg>
