<svg width="32" height="32" viewBox="0 0 32 32" fill="none" xmlns="http://www.w3.org/2000/svg">
<g id="Icons">
<path id="Ellipse 120" d="M32 16C32 24.8366 24.8366 32 16 32C7.16344 32 0 24.8366 0 16C0 7.16344 7.16344 0 16 0C24.8366 0 32 7.16344 32 16Z" fill="#656565"/>
<path id="Color Vector" d="M11.2131 24.6666H7.61956V13.0941H11.2131V24.6666ZM9.41441 11.5155C8.26531 11.5155 7.33325 10.5637 7.33325 9.41452C7.33325 8.86255 7.55252 8.33319 7.94281 7.94288C8.3331 7.55258 8.86245 7.33331 9.41441 7.33331C9.96637 7.33331 10.4957 7.55258 10.886 7.94288C11.2763 8.33319 11.4956 8.86255 11.4956 9.41452C11.4956 10.5637 10.5631 11.5155 9.41441 11.5155ZM24.6627 24.6666H21.0769V19.0332C21.0769 17.6906 21.0498 15.9688 19.2085 15.9688C17.3402 15.9688 17.0538 17.4275 17.0538 18.9365V24.6666H13.4641V13.0941H16.9107V14.6727H16.961C17.4408 13.7634 18.6127 12.8039 20.3611 12.8039C23.998 12.8039 24.6666 15.1989 24.6666 18.3097V24.6666H24.6627Z" fill="white"/>
</g>
</svg>
