<svg width="32" height="32" viewBox="0 0 32 32" fill="none" xmlns="http://www.w3.org/2000/svg">
<path fill-rule="evenodd" clip-rule="evenodd" d="M16 25C15.4477 25 15 24.5523 15 24L15 16.4142L13.7071 17.7071C13.3166 18.0976 12.6834 18.0976 12.2929 17.7071C11.9024 17.3166 11.9024 16.6834 12.2929 16.2929L15.2929 13.2929C15.6834 12.9024 16.3166 12.9024 16.7071 13.2929L19.7071 16.2929C20.0976 16.6834 20.0976 17.3166 19.7071 17.7071C19.3166 18.0976 18.6834 18.0976 18.2929 17.7071L17 16.4142V24C17 24.5523 16.5523 25 16 25ZM25.1213 21.1213C24.5587 21.6839 23.7956 22 23 22H20C19.4477 22 19 21.5523 19 21C19 20.4477 19.4477 20 20 20H23C23.2652 20 23.5196 19.8946 23.7071 19.7071C23.8946 19.5196 24 19.2652 24 19V10C24 9.73478 23.8946 9.48043 23.7071 9.29289C23.5196 9.10536 23.2652 9 23 9L9 9C8.73479 9 8.48043 9.10536 8.29289 9.29289C8.10536 9.48043 8 9.73478 8 10L8 19C8 19.2652 8.10536 19.5196 8.29289 19.7071C8.48043 19.8946 8.73478 20 9 20H12C12.5523 20 13 20.4477 13 21C13 21.5523 12.5523 22 12 22L9 22C8.20435 22 7.44129 21.6839 6.87868 21.1213C6.31607 20.5587 6 19.7957 6 19L6 10C6 9.20435 6.31607 8.44129 6.87868 7.87868C7.44129 7.31607 8.20435 7 9 7L23 7C23.7957 7 24.5587 7.31607 25.1213 7.87868C25.6839 8.44129 26 9.20435 26 10L26 19C26 19.7956 25.6839 20.5587 25.1213 21.1213Z" fill="#656565"/>
</svg>
