<svg width="140" height="38" viewBox="0 0 140 38" fill="none" xmlns="http://www.w3.org/2000/svg">
<g clip-path="url(#clip0_8615_66300)">
<path d="M60.3131 22.5302C60.8367 19.6836 63.8038 19.7235 65.2219 20.2626L65.222 17.3547C58.1533 15.802 56.3862 19.9391 56.0589 22.5302C55.0532 30.4904 62.0584 30.3979 64.8946 29.3197L64.8946 25.1179C60.7058 26.6706 60.0949 24.0397 60.3131 22.5302Z" fill="#222222" stroke="#222222"/>
<path d="M70.5462 18.6973V17.7305H74.9043V19.9864C79.7318 18.4395 81.6091 20.3086 81.6091 22.2423V24.8204H79.5977C79.3295 23.0157 77.8097 22.5645 76.9158 22.5645C74.2338 22.5645 73.5634 25.7872 73.5634 26.4318L73.2281 31.2658H70.2109L70.5462 18.6973Z" fill="#222222" stroke="#222222"/>
<path d="M94.1377 22.2112L87.5341 23.6834C87.5341 23.6834 87.4856 23.5608 87.8294 25.5019C88.3018 28.1691 92.1602 28.8359 93.4398 27.9266L94.4329 29.1822C93.488 30.8794 91.6769 31.7078 90.8895 31.9099C87.1099 32.6373 85.5745 27.1616 85.2792 24.3328C84.5706 18.7561 87.5431 17.1599 89.1179 17.0588C92.8976 16.5739 94.0393 20.2917 94.1377 22.2112Z" fill="#222222" stroke="#222222"/>
<path d="M104.058 19.2834C101.805 18.8513 100.866 20.3638 100.678 21.174C98.707 21.1678 98.9887 21.1678 98.707 21.1678C99.2703 16.8402 102.65 16.2225 104.34 16.3126C108.396 16.5286 109.597 19.6436 109.691 21.174V28.1961H110.818V31.167C108.339 31.8152 105.466 31.9772 104.34 31.9772C100.735 31.9772 99.6655 30.0804 99.2702 29.0063C97.9183 25.3333 102.65 24.6788 102.65 24.6788L106.875 24.1449V21.9843C106.875 20.2557 104.997 19.4635 104.058 19.2834Z" fill="#222222" stroke="#222222"/>
<path d="M115.801 25.7361L117.419 16.9551L121.303 16.3047L120.979 19.8821C121.95 18.9065 122.597 18.5812 123.244 18.5812C124.044 18.5812 124.755 19.1233 125.186 19.5569C126.222 17.9958 128.207 17.6056 129.07 17.6056C132.954 17.6056 133.709 20.2073 133.601 21.5082L132.63 29.3135H129.394L129.717 25.0856C129.976 22.2237 129.444 21.8334 128.423 21.8334C127.402 21.8334 127.02 23.8932 126.804 24.7604L125.834 28.9883H123.244V24.4352C123.244 22.8741 122.722 22.4839 122.274 22.4839C121.238 22.4839 120.655 23.4595 120.332 25.7361L120.008 30.6144L115.801 31.2648V25.7361Z" fill="#222222" stroke="#222222"/>
<path d="M50.6188 15.5938L45.9883 16.3061C46.2257 19.9868 46.7007 27.6331 46.7007 28.7729C46.7007 29.9128 47.1756 30.1977 47.4131 30.1977H48.8378C49.9777 30.1977 50.975 29.4853 50.975 28.0605L51.3312 17.0185C51.3312 16.3061 51.3312 15.5938 50.6188 15.5938Z" fill="#FAAA1E"/>
<path d="M47.4141 9.53633C47.4141 7.54164 49.0763 7.04297 49.9074 7.04297C51.9021 7.04297 52.4008 8.70521 52.4008 9.53633C52.4008 11.531 50.7385 12.0297 49.9074 12.0297C47.9127 12.0297 47.4141 10.3674 47.4141 9.53633Z" fill="#FAAA1E"/>
<path d="M11.4447 19.5387C11.4447 25.7151 17.998 25.2215 21.5837 24.8279V28.5413C6.645 31.4931 6.64319 17.9167 6.64315 17.6183L6.64315 17.6182C6.46451 6.62292 15.8023 6.99853 20.986 10.0737V15.5597C14.5573 14.6184 11.4447 16.4158 11.4447 19.5387Z" fill="#F18B6B" stroke="#F18B6B"/>
<path d="M28.6246 17.3359H32.0117L29.8201 28.2942C28.6246 32.279 24.2579 31.2828 23.6602 28.2942L21.5847 18.9963H24.4903C24.6232 20.3246 25.0017 22.4465 25.3205 23.5622C25.6393 24.678 26.5658 26.0527 27.3959 23.5622L28.6246 17.3359Z" fill="#4BA1B4" stroke="#4BA1B4"/>
</g>
<defs>
<clipPath id="clip0_8615_66300">
<rect width="140" height="37.1917" fill="white" transform="translate(0 0.402344)"/>
</clipPath>
</defs>
</svg>
