<svg width="25" height="25" viewBox="0 0 25 25" fill="none" xmlns="http://www.w3.org/2000/svg">
<path fill-rule="evenodd" clip-rule="evenodd" d="M24.02 12.771C24.02 11.92 23.9436 11.1019 23.8018 10.3164H12.5V14.9582H18.9582C18.68 16.4582 17.8345 17.7291 16.5636 18.58V21.591H20.4418C22.7109 19.5019 24.02 16.4255 24.02 12.771Z" fill="#4285F4"/>
<path fill-rule="evenodd" clip-rule="evenodd" d="M12.501 24.5013C15.741 24.5013 18.4573 23.4267 20.4428 21.594L16.5646 18.5831C15.4901 19.3031 14.1155 19.7285 12.501 19.7285C9.37553 19.7285 6.73007 17.6176 5.78643 14.7812H1.77734V17.8903C3.75189 21.8122 7.81007 24.5013 12.501 24.5013Z" fill="#34A853"/>
<path fill-rule="evenodd" clip-rule="evenodd" d="M5.78545 14.7785C5.54545 14.0585 5.40909 13.2894 5.40909 12.4985C5.40909 11.7076 5.54545 10.9385 5.78545 10.2185V7.10938H1.77636C0.963636 8.72938 0.5 10.5621 0.5 12.4985C0.5 14.4348 0.963636 16.2676 1.77636 17.8876L5.78545 14.7785Z" fill="#FBBC05"/>
<path fill-rule="evenodd" clip-rule="evenodd" d="M12.501 5.27273C14.2628 5.27273 15.8446 5.87818 17.0883 7.06727L20.5301 3.62545C18.4519 1.68909 15.7355 0.5 12.501 0.5C7.81007 0.5 3.75189 3.18909 1.77734 7.11091L5.78643 10.22C6.73007 7.38364 9.37553 5.27273 12.501 5.27273Z" fill="#EA4335"/>
</svg>
