<svg width="200" height="54" viewBox="0 0 200 54" fill="none" xmlns="http://www.w3.org/2000/svg">
<path d="M31.037 6.23192C26.4576 1.2044 13.2836 -0.568586 8.72957 3.22663C-0.568364 8.53962 0.273453 27.0075 3.03691 37.1926C6.69225 50.6647 38.1413 58.8241 48.21 44.1553C58.4449 25.2378 50.3258 19.5078 44.2622 17.9342C34.7257 15.7504 36.7613 12.5163 31.037 6.23192Z" fill="white"/>
<path d="M79.261 12.9529C79.261 6.45182 74.721 3.41797 69.1941 3.41797C58.8184 3.41797 54.8992 27.1204 60.5319 40.7994C61.8603 44.0252 66.6041 51.5262 76.6609 45.6752C79.5504 48.1312 87.195 52.3063 94.6574 49.3591C105.563 54.6889 116.568 51.5262 119.355 45.6752C121.586 52.0047 133.954 52.2131 139.86 51.5262H165.915L196.708 49.3591C197.761 43.7248 200.96 36.435 196.708 20.971C194.181 11.7827 168.881 11.1979 164.327 20.971C155.522 12.6984 144.347 17.5241 139.86 20.971C131.975 13.1538 121.046 17.7138 116.568 20.971C113.283 15.1827 102.278 15.1827 98.2928 19.454C94.6574 10.6286 84.8459 12.6222 79.261 12.9529Z" fill="white"/>
<path d="M86.1646 31.6123C86.9126 27.5458 91.1514 27.6027 93.1772 28.3729L93.1773 24.2188C83.0792 22.0007 80.5548 27.9108 80.0872 31.6123C78.6505 42.984 88.6579 42.8519 92.7096 41.3116L92.7097 35.3091C86.7256 37.5272 85.8529 33.7688 86.1646 31.6123Z" fill="#222222" stroke="#222222"/>
<path d="M100.782 26.1351V24.7539H107.008V27.9766C113.904 25.7668 116.586 28.437 116.586 31.1993V34.8824H113.712C113.329 32.3043 111.158 31.6597 109.881 31.6597C106.05 31.6597 105.092 36.2636 105.092 37.1844L104.613 44.0902H100.303L100.782 26.1351Z" fill="#222222" stroke="#222222"/>
<path d="M134.482 31.1567L125.048 33.2598C125.048 33.2598 124.979 33.0846 125.47 35.8577C126.145 39.6679 131.657 40.6204 133.485 39.3215L134.904 41.1151C133.554 43.5398 130.967 44.7233 129.842 45.0119C124.442 46.051 122.249 38.2286 121.827 34.1875C120.815 26.2208 125.061 23.9404 127.311 23.7961C132.711 23.1033 134.342 28.4145 134.482 31.1567Z" fill="#222222" stroke="#222222"/>
<path d="M148.654 26.9741C145.435 26.3568 144.094 28.5174 143.826 29.6749C141.01 29.666 141.412 29.666 141.01 29.666C141.814 23.4838 146.643 22.6014 149.057 22.73C154.851 23.0387 156.567 27.4886 156.701 29.6749V39.7065H158.311V43.9506C154.77 44.8766 150.666 45.1081 149.057 45.1081C143.907 45.1081 142.379 42.3984 141.814 40.864C139.883 35.6167 146.643 34.6818 146.643 34.6818L152.678 33.9191V30.8324C152.678 28.3631 149.995 27.2313 148.654 26.9741Z" fill="#222222" stroke="#222222"/>
<path d="M165.436 36.1922L167.747 23.648L173.295 22.7188L172.833 27.8294C174.22 26.4356 175.145 25.971 176.069 25.971C177.212 25.971 178.227 26.7453 178.843 27.3648C180.323 25.1347 183.159 24.5772 184.391 24.5772C189.94 24.5772 191.018 28.294 190.864 30.1524L189.477 41.3028H184.854L185.316 35.263C185.686 31.1745 184.925 30.617 183.467 30.617C182.008 30.617 181.463 33.5594 181.155 34.7984L179.768 40.8382H176.069V34.3338C176.069 32.1037 175.324 31.5462 174.682 31.5462C173.203 31.5462 172.371 32.94 171.908 36.1922L171.446 43.1612L165.436 44.0904V36.1922Z" fill="#222222" stroke="#222222"/>
<path d="M72.3162 21.6992L65.7012 22.7169C66.0404 27.975 66.7189 38.8983 66.7189 40.5266C66.7189 42.1549 67.3973 42.562 67.7366 42.562H69.772C71.4003 42.562 72.8251 41.5443 72.8251 39.5089L73.3339 23.7346C73.3339 22.7169 73.3339 21.6992 72.3162 21.6992Z" fill="#FAAA1E"/>
<path d="M67.7363 13.0502C67.7363 10.2007 70.111 9.48828 71.2983 9.48828C74.1478 9.48828 74.8602 11.8629 74.8602 13.0502C74.8602 15.8998 72.4856 16.6122 71.2983 16.6122C68.4487 16.6122 67.7363 14.2375 67.7363 13.0502Z" fill="#FAAA1E"/>
<path d="M16.3512 27.3365C16.3512 36.16 25.7131 35.4548 30.8355 34.8925V40.1973C9.49453 44.4142 9.49195 25.0194 9.49189 24.5931L9.49189 24.593C9.23668 8.88543 22.5764 9.422 29.9817 13.8151V21.6522C20.7978 20.3075 16.3512 22.8752 16.3512 27.3365Z" fill="#F18B6B" stroke="#F18B6B"/>
<path d="M40.8918 24.1953H45.7305L42.5995 39.85C40.8918 45.5426 34.6535 44.1194 33.7997 39.85L30.8348 26.5672H34.9856C35.1754 28.4648 35.7162 31.4961 36.1716 33.09C36.627 34.6839 37.9505 36.6479 39.1365 33.09L40.8918 24.1953Z" fill="#4BA1B4" stroke="#4BA1B4"/>
</svg>
