<svg width="140" height="38" viewBox="0 0 140 38" fill="none" xmlns="http://www.w3.org/2000/svg">
<g clip-path="url(#clip0_8990_69074)">
<path d="M60.3131 22.1278C60.8367 19.2813 63.8038 19.3211 65.2219 19.8602L65.222 16.9523C58.1533 15.3997 56.3862 19.5368 56.0589 22.1278C55.0532 30.088 62.0584 29.9956 64.8946 28.9173L64.8946 24.7156C60.7058 26.2682 60.0949 23.6373 60.3131 22.1278Z" fill="#222222" stroke="#222222"/>
<path d="M70.5462 18.2949V17.3281H74.9043V19.584C79.7318 18.0371 81.6091 19.9063 81.6091 21.8399V24.4181H79.5977C79.3295 22.6134 77.8097 22.1622 76.9158 22.1622C74.2338 22.1622 73.5634 25.3849 73.5634 26.0294L73.2281 30.8635H70.2109L70.5462 18.2949Z" fill="#222222" stroke="#222222"/>
<path d="M94.1377 21.8089L87.5341 23.2811C87.5341 23.2811 87.4856 23.1584 87.8294 25.0996C88.3018 27.7667 92.1602 28.4335 93.4398 27.5243L94.4329 28.7798C93.488 30.4771 91.6769 31.3055 90.8895 31.5076C87.1099 32.235 85.5745 26.7593 85.2792 23.9305C84.5706 18.3538 87.5431 16.7575 89.1179 16.6565C92.8976 16.1715 94.0393 19.8894 94.1377 21.8089Z" fill="#222222" stroke="#222222"/>
<path d="M104.058 18.8811C101.805 18.449 100.866 19.9614 100.678 20.7717C98.707 20.7654 98.9887 20.7654 98.707 20.7654C99.2703 16.4379 102.65 15.8202 104.34 15.9102C108.396 16.1263 109.597 19.2412 109.691 20.7717V27.7938H110.818V30.7646C108.339 31.4128 105.466 31.5749 104.34 31.5749C100.735 31.5749 99.6655 29.6781 99.2702 28.604C97.9183 24.9309 102.65 24.2765 102.65 24.2765L106.875 23.7426V21.5819C106.875 19.8534 104.997 19.0612 104.058 18.8811Z" fill="#222222" stroke="#222222"/>
<path d="M115.801 25.3337L117.419 16.5528L121.303 15.9023L120.979 19.4798C121.95 18.5041 122.597 18.1789 123.244 18.1789C124.044 18.1789 124.755 18.7209 125.186 19.1546C126.222 17.5935 128.207 17.2032 129.07 17.2032C132.954 17.2032 133.709 19.805 133.601 21.1059L132.63 28.9112H129.394L129.717 24.6833C129.976 21.8214 129.444 21.4311 128.423 21.4311C127.402 21.4311 127.02 23.4908 126.804 24.3581L125.834 28.5859H123.244V24.0329C123.244 22.4718 122.722 22.0815 122.274 22.0815C121.238 22.0815 120.655 23.0572 120.332 25.3337L120.008 30.2121L115.801 30.8625V25.3337Z" fill="#222222" stroke="#222222"/>
<path d="M50.6188 15.1914L45.9883 15.9038C46.2257 19.5845 46.7007 27.2308 46.7007 28.3706C46.7007 29.5104 47.1756 29.7954 47.4131 29.7954H48.8378C49.9777 29.7954 50.975 29.083 50.975 27.6582L51.3312 16.6162C51.3312 15.9038 51.3312 15.1914 50.6188 15.1914Z" fill="#FAAA1E"/>
<path d="M47.4141 9.13398C47.4141 7.1393 49.0763 6.64062 49.9074 6.64062C51.9021 6.64062 52.4008 8.30286 52.4008 9.13398C52.4008 11.1287 50.7385 11.6273 49.9074 11.6273C47.9127 11.6273 47.4141 9.9651 47.4141 9.13398Z" fill="#FAAA1E"/>
<path d="M11.4447 19.1363C11.4447 25.3128 17.998 24.8192 21.5837 24.4255V28.1389C6.645 31.0907 6.64319 17.5144 6.64315 17.216L6.64315 17.2159C6.46451 6.22058 15.8023 6.59618 20.986 9.67137V15.1573C14.5573 14.2161 11.4447 16.0134 11.4447 19.1363Z" fill="#F18B6B" stroke="#F18B6B"/>
<path d="M28.6246 16.9336H32.0117L29.8201 27.8918C28.6246 31.8767 24.2579 30.8805 23.6602 27.8918L21.5847 18.5939H24.4903C24.6232 19.9222 25.0017 22.0441 25.3205 23.1599C25.6393 24.2756 26.5658 25.6504 27.3959 23.1599L28.6246 16.9336Z" fill="#4BA1B4" stroke="#4BA1B4"/>
</g>
<defs>
<clipPath id="clip0_8990_69074">
<rect width="140" height="37.1917" fill="white"/>
</clipPath>
</defs>
</svg>
