<svg width="14" height="12" viewBox="0 0 14 12" fill="none" xmlns="http://www.w3.org/2000/svg">
<path fill-rule="evenodd" clip-rule="evenodd" d="M0.615144 1.01507C1.00897 0.621248 1.5431 0.400002 2.10005 0.400002H11.8999C12.4569 0.400002 12.991 0.621249 13.3849 1.01507C13.7787 1.40889 13.9999 1.94303 13.9999 2.49998V3.18911C14 3.19593 14 3.20274 13.9999 3.20955V9.49991C13.9999 10.0569 13.7787 10.591 13.3849 10.9848C12.991 11.3786 12.4569 11.5999 11.8999 11.5999H2.10005C1.5431 11.5999 1.00897 11.3786 0.615144 10.9848C0.221321 10.591 7.44126e-05 10.0569 7.44126e-05 9.49991V3.20954C-2.47207e-05 3.20274 -2.48876e-05 3.19593 7.44126e-05 3.18912V2.49998C7.44126e-05 1.94303 0.221321 1.40889 0.615144 1.01507ZM1.40006 4.50792V9.49991C1.40006 9.68556 1.47381 9.8636 1.60508 9.99487C1.73636 10.1261 1.9144 10.1999 2.10005 10.1999H11.8999C12.0856 10.1999 12.2636 10.1261 12.3949 9.99487C12.5262 9.8636 12.5999 9.68555 12.5999 9.49991V4.50792L8.16549 7.46422C8.16542 7.46427 8.16535 7.46432 8.16528 7.46436C7.82023 7.69451 7.41476 7.81733 7 7.81733C6.58524 7.81733 6.17977 7.69451 5.83472 7.46436C5.83465 7.46432 5.83458 7.46427 5.83451 7.46422L1.40006 4.50792ZM12.5999 2.82535L7.38871 6.2995L7.3885 6.29964C7.27347 6.37639 7.13828 6.41735 7 6.41735C6.86172 6.41735 6.72653 6.37639 6.6115 6.29964L6.61129 6.2995L1.40006 2.82535V2.49998C1.40006 2.31433 1.47381 2.13628 1.60508 2.00501C1.73636 1.87374 1.9144 1.79999 2.10005 1.79999H11.8999C12.0856 1.79999 12.2636 1.87374 12.3949 2.00501C12.5262 2.13628 12.5999 2.31433 12.5999 2.49998V2.82535Z" fill="white"/>
</svg>
