<svg width="24" height="24" viewBox="0 0 24 24" fill="none" xmlns="http://www.w3.org/2000/svg">
<path fill-rule="evenodd" clip-rule="evenodd" d="M6.92893 1.27312C7.46236 1.13005 8.01077 1.4465 8.15384 1.97993L8.93084 4.87693C9.07391 5.41037 8.75746 5.95878 8.22403 6.10185C7.6906 6.24492 7.14219 5.92847 6.99912 5.39504L6.22212 2.49804C6.07905 1.96461 6.3955 1.41619 6.92893 1.27312ZM14.6571 3.34288C15.0476 3.73341 15.0476 4.36657 14.6571 4.75709L12.5351 6.87909C12.1446 7.26962 11.5114 7.26962 11.1209 6.87909C10.7303 6.48857 10.7303 5.8554 11.1209 5.46488L13.2429 3.34288C13.6334 2.95236 14.2666 2.95236 14.6571 3.34288ZM1.27209 6.92902C1.41512 6.39557 1.96351 6.07908 2.49695 6.2221L5.39495 6.9991C5.92839 7.14213 6.24489 7.69051 6.10187 8.22396C5.95884 8.7574 5.41046 9.0739 4.87701 8.93087L1.97901 8.15387C1.44557 8.01085 1.12907 7.46246 1.27209 6.92902ZM8.29287 8.29288C8.5676 8.01815 8.97659 7.92742 9.34172 8.06019L20.3417 12.0602C20.7315 12.2019 20.9933 12.5695 20.9999 12.9841C21.0064 13.3988 20.7564 13.7744 20.3714 13.9285L16.7794 15.3652L20.7071 19.2929C21.0976 19.6834 21.0976 20.3166 20.7071 20.7071C20.3166 21.0976 19.6834 21.0976 19.2929 20.7071L15.3652 16.7794L13.9285 20.3714C13.7744 20.7564 13.3988 21.0064 12.9841 20.9999C12.5695 20.9933 12.2019 20.7315 12.0602 20.3417L8.06019 9.34173C7.92741 8.9766 8.01815 8.56761 8.29287 8.29288ZM10.6721 10.6721L13.0445 17.1962L14.0715 14.6286C14.1731 14.3745 14.3745 14.1732 14.6286 14.0715L17.1962 13.0445L10.6721 10.6721ZM6.87775 11.1205C7.26846 11.5109 7.26876 12.1441 6.87842 12.5348L4.75842 14.6568C4.36808 15.0475 3.73492 15.0478 3.34421 14.6574C2.9535 14.2671 2.9532 13.6339 3.34354 13.2432L5.46354 11.1212C5.85388 10.7305 6.48705 10.7302 6.87775 11.1205Z" fill="#656565"/>
</svg>
