<svg width="32" height="32" viewBox="0 0 32 32" fill="none" xmlns="http://www.w3.org/2000/svg">
<path fill-rule="evenodd" clip-rule="evenodd" d="M15.6852 5.62854C16.0323 5.28141 16.5951 5.28141 16.9423 5.62854L19.4564 8.1427C19.8036 8.48983 19.8036 9.05264 19.4564 9.39978C19.1093 9.74691 18.5465 9.74691 18.1993 9.39978L17.2026 8.40305L17.2026 12.5425C17.2026 13.0334 16.8046 13.4314 16.3137 13.4314C15.8228 13.4314 15.4248 13.0334 15.4248 12.5425L15.4248 8.40305L14.4281 9.39978C14.081 9.74691 13.5182 9.74691 13.171 9.39978C12.8239 9.05264 12.8239 8.48983 13.171 8.1427L15.6852 5.62854ZM24.4847 13.171L26.9989 15.6852C27.346 16.0323 27.346 16.5951 26.9989 16.9422L24.4847 19.4564C24.1376 19.8035 23.5748 19.8035 23.2277 19.4564C22.8805 19.1093 22.8805 18.5465 23.2277 18.1993L24.2244 17.2026L20.085 17.2026C19.594 17.2026 19.1961 16.8046 19.1961 16.3137C19.1961 15.8228 19.594 15.4248 20.085 15.4248L24.2244 15.4248L23.2277 14.4281C22.8805 14.081 22.8805 13.5181 23.2277 13.171C23.5748 12.8239 24.1376 12.8239 24.4847 13.171Z" fill="#656565"/>
<path fill-rule="evenodd" clip-rule="evenodd" d="M16.9423 26.9988C16.5951 27.346 16.0323 27.346 15.6852 26.9988L13.171 24.4847C12.8239 24.1376 12.8239 23.5747 13.171 23.2276C13.5182 22.8805 14.081 22.8805 14.4281 23.2276L15.4248 24.2243L15.4248 20.0849C15.4248 19.594 15.8228 19.196 16.3137 19.196C16.8046 19.196 17.2026 19.594 17.2026 20.0849L17.2026 24.2243L18.1993 23.2276C18.5465 22.8805 19.1093 22.8805 19.4564 23.2276C19.8035 23.5747 19.8035 24.1376 19.4564 24.4847L16.9423 26.9988ZM8.14271 19.4564L5.62855 16.9422C5.28142 16.5951 5.28142 16.0323 5.62855 15.6851L8.14271 13.171C8.48984 12.8238 9.05265 12.8238 9.39979 13.171C9.74692 13.5181 9.74692 14.0809 9.39979 14.4281L8.40306 15.4248L12.5425 15.4248C13.0334 15.4248 13.4314 15.8228 13.4314 16.3137C13.4314 16.8046 13.0334 17.2026 12.5425 17.2026L8.40306 17.2026L9.39979 18.1993C9.74692 18.5464 9.74692 19.1092 9.39979 19.4564C9.05265 19.8035 8.48984 19.8035 8.14271 19.4564Z" fill="#656565"/>
</svg>
