<svg width="32" height="32" viewBox="0 0 32 32" fill="none" xmlns="http://www.w3.org/2000/svg">
<path fill-rule="evenodd" clip-rule="evenodd" d="M9 9C8.73478 9 8.48043 9.10536 8.29289 9.29289C8.10536 9.48043 8 9.73478 8 10V18C8 18.2652 8.10536 18.5196 8.29289 18.7071C8.48043 18.8946 8.73478 19 9 19H12C12.2652 19 12.5196 19.1054 12.7071 19.2929L16 22.5858L19.2929 19.2929C19.4804 19.1054 19.7348 19 20 19H23C23.2652 19 23.5196 18.8946 23.7071 18.7071C23.8946 18.5196 24 18.2652 24 18V10C24 9.73478 23.8946 9.48043 23.7071 9.29289C23.5196 9.10536 23.2652 9 23 9H9ZM6.87868 7.87868C7.44129 7.31607 8.20435 7 9 7H23C23.7957 7 24.5587 7.31607 25.1213 7.87868C25.6839 8.44129 26 9.20435 26 10V18C26 18.7957 25.6839 19.5587 25.1213 20.1213C24.5587 20.6839 23.7957 21 23 21H20.4142L16.7071 24.7071C16.3166 25.0976 15.6834 25.0976 15.2929 24.7071L11.5858 21H9C8.20435 21 7.44129 20.6839 6.87868 20.1213C6.31607 19.5587 6 18.7956 6 18V10C6 9.20435 6.31607 8.44129 6.87868 7.87868ZM10 12C10 11.4477 10.4477 11 11 11H21C21.5523 11 22 11.4477 22 12C22 12.5523 21.5523 13 21 13H11C10.4477 13 10 12.5523 10 12ZM10 16C10 15.4477 10.4477 15 11 15H15C15.5523 15 16 15.4477 16 16C16 16.5523 15.5523 17 15 17H11C10.4477 17 10 16.5523 10 16Z" fill="#656565"/>
</svg>
