<svg width="67" height="16" viewBox="0 0 67 16" fill="none" xmlns="http://www.w3.org/2000/svg">
<path d="M25.2386 3.57812H21.6127C21.3646 3.57812 21.1535 3.75839 21.1148 4.00334L19.6483 13.3012C19.6192 13.4847 19.7613 13.6501 19.9474 13.6501H21.6784C21.9266 13.6501 22.1376 13.4698 22.1763 13.2244L22.5718 10.7166C22.61 10.4711 22.8215 10.2908 23.0691 10.2908H24.217C26.6055 10.2908 27.9839 9.13502 28.3439 6.84461C28.5062 5.84256 28.3508 5.05523 27.8816 4.50383C27.3663 3.89836 26.4522 3.57812 25.2386 3.57812ZM25.657 6.97398C25.4587 8.27506 24.4646 8.27506 23.5033 8.27506H22.9562L23.34 5.84521C23.3628 5.69834 23.4901 5.59019 23.6385 5.59019H23.8893C24.5441 5.59019 25.1618 5.59019 25.4809 5.96344C25.6713 6.18612 25.7296 6.51695 25.657 6.97398Z" fill="#253B80"/>
<path d="M36.0798 6.93234H34.3434C34.1955 6.93234 34.0677 7.0405 34.0449 7.18736L33.968 7.67301L33.8466 7.49699C33.4707 6.95143 32.6325 6.76904 31.7959 6.76904C29.8771 6.76904 28.2383 8.22229 27.9191 10.2609C27.7532 11.2778 27.9891 12.2501 28.566 12.9282C29.0951 13.5517 29.8522 13.8115 30.753 13.8115C32.299 13.8115 33.1563 12.8174 33.1563 12.8174L33.0789 13.2999C33.0498 13.4844 33.1918 13.6498 33.3769 13.6498H34.9409C35.1896 13.6498 35.3995 13.4696 35.4388 13.2241L36.3772 7.2812C36.4069 7.09829 36.2653 6.93234 36.0798 6.93234ZM33.6595 10.3118C33.4919 11.3037 32.7046 11.9697 31.7004 11.9697C31.1962 11.9697 30.7933 11.8079 30.5345 11.5015C30.2779 11.1972 30.1804 10.764 30.262 10.2815C30.4184 9.29804 31.219 8.61038 32.2078 8.61038C32.7009 8.61038 33.1017 8.77421 33.3657 9.08331C33.6303 9.39559 33.7353 9.83141 33.6595 10.3118Z" fill="#253B80"/>
<path d="M45.3243 6.93213H43.5795C43.413 6.93213 43.2566 7.01484 43.1622 7.15322L40.7557 10.6981L39.7356 7.2916C39.6714 7.07846 39.4747 6.93213 39.2521 6.93213H37.5374C37.3291 6.93213 37.1843 7.13572 37.2506 7.33189L39.1725 12.972L37.3657 15.5228C37.2236 15.7237 37.3667 15.9999 37.6122 15.9999H39.3549C39.5203 15.9999 39.6752 15.9193 39.769 15.7836L45.5724 7.40665C45.7113 7.20624 45.5687 6.93213 45.3243 6.93213Z" fill="#253B80"/>
<path d="M51.1019 3.57812H47.4754C47.2278 3.57812 47.0168 3.75839 46.9781 4.00334L45.5116 13.3012C45.4825 13.4847 45.6246 13.6501 45.8096 13.6501H47.6705C47.8434 13.6501 47.9913 13.5239 48.0183 13.3521L48.4345 10.7166C48.4727 10.4711 48.6843 10.2908 48.9319 10.2908H50.0792C52.4682 10.2908 53.8462 9.13502 54.2067 6.84461C54.3695 5.84256 54.2131 5.05523 53.7438 4.50383C53.229 3.89836 52.3155 3.57812 51.1019 3.57812ZM51.5202 6.97398C51.3225 8.27506 50.3284 8.27506 49.3666 8.27506H48.82L49.2044 5.84521C49.2272 5.69834 49.3534 5.59019 49.5023 5.59019H49.7531C50.4074 5.59019 51.0256 5.59019 51.3447 5.96344C51.5351 6.18612 51.5929 6.51695 51.5202 6.97398Z" fill="#179BD7"/>
<path d="M61.9408 6.93234H60.2055C60.0565 6.93234 59.9298 7.0405 59.9075 7.18736L59.8306 7.67301L59.7087 7.49699C59.3328 6.95143 58.4951 6.76904 57.6585 6.76904C55.7397 6.76904 54.1014 8.22229 53.7823 10.2609C53.6168 11.2778 53.8517 12.2501 54.4286 12.9282C54.9588 13.5517 55.7148 13.8115 56.6156 13.8115C58.1616 13.8115 59.0189 12.8174 59.0189 12.8174L58.9415 13.2999C58.9124 13.4844 59.0545 13.6498 59.2405 13.6498H60.8041C61.0517 13.6498 61.2627 13.4696 61.3014 13.2241L62.2403 7.2812C62.269 7.09829 62.1269 6.93234 61.9408 6.93234ZM59.5205 10.3118C59.354 11.3037 58.5656 11.9697 57.5614 11.9697C57.0583 11.9697 56.6543 11.8079 56.3956 11.5015C56.1389 11.1972 56.0425 10.764 56.123 10.2815C56.2805 9.29804 57.08 8.61038 58.0688 8.61038C58.5619 8.61038 58.9627 8.77421 59.2268 9.08331C59.4924 9.39559 59.5974 9.83141 59.5205 10.3118Z" fill="#179BD7"/>
<path d="M63.9881 3.8327L62.4999 13.3008C62.4707 13.4842 62.6128 13.6497 62.7979 13.6497H64.2941C64.5427 13.6497 64.7537 13.4694 64.7919 13.2239L66.2595 3.92654C66.2886 3.7431 66.1465 3.57715 65.9615 3.57715H64.2861C64.1382 3.57768 64.0109 3.68584 63.9881 3.8327Z" fill="#179BD7"/>
<path d="M4.59255 15.4562L4.86984 13.6949L4.25217 13.6806H1.30273L3.35244 0.684082C3.3588 0.644849 3.37948 0.608266 3.4097 0.582286C3.43992 0.556307 3.47862 0.541992 3.51892 0.541992H8.49208C10.1431 0.541992 11.2825 0.885554 11.8773 1.56366C12.1562 1.88178 12.3338 2.2142 12.4197 2.58003C12.5098 2.96389 12.5114 3.4225 12.4234 3.98185L12.4171 4.02267V4.38108L12.6959 4.53908C12.9308 4.66367 13.1174 4.80629 13.2606 4.96959C13.4992 5.24157 13.6535 5.58726 13.7187 5.99709C13.786 6.41859 13.7637 6.92015 13.6535 7.48798C13.5262 8.14117 13.3205 8.71006 13.0427 9.17557C12.7871 9.60449 12.4616 9.96024 12.0751 10.2359C11.7061 10.4979 11.2676 10.6967 10.7719 10.8239C10.2915 10.949 9.74385 11.0121 9.14315 11.0121H8.75611C8.47935 11.0121 8.21055 11.1118 7.99953 11.2905C7.78799 11.4729 7.64802 11.7221 7.60507 11.9946L7.57591 12.1531L7.08602 15.2573L7.06375 15.3713C7.05792 15.4074 7.04785 15.4254 7.033 15.4376C7.01975 15.4487 7.00066 15.4562 6.9821 15.4562H4.59255Z" fill="#253B80"/>
<path d="M12.9583 4.06494C12.9435 4.15984 12.9265 4.25687 12.9074 4.35654C12.2516 7.72377 10.0078 8.887 7.14216 8.887H5.68308C5.33263 8.887 5.03731 9.14149 4.98271 9.48717L4.23567 14.2249L4.02413 15.5679C3.9886 15.7948 4.16357 15.9995 4.39261 15.9995H6.98045C7.2869 15.9995 7.54722 15.7768 7.59547 15.4746L7.62092 15.3431L8.10816 12.251L8.13944 12.0814C8.18716 11.7781 8.44801 11.5554 8.75446 11.5554H9.1415C11.6488 11.5554 13.6115 10.5375 14.1852 7.59175C14.4248 6.36118 14.3008 5.33368 13.6666 4.61103C13.4747 4.39313 13.2367 4.21233 12.9583 4.06494Z" fill="#179BD7"/>
<path d="M12.2739 3.79107C12.1737 3.76191 12.0703 3.7354 11.9643 3.71154C11.8577 3.68821 11.7485 3.66753 11.6361 3.64951C11.2427 3.58588 10.8117 3.55566 10.3499 3.55566H6.45193C6.35597 3.55566 6.26478 3.5774 6.18313 3.61664C6.0034 3.70306 5.86979 3.87325 5.83745 4.08161L5.00823 9.33365L4.98438 9.48687C5.03898 9.14119 5.3343 8.8867 5.68475 8.8867H7.14383C10.0095 8.8867 12.2532 7.72294 12.9091 4.35625C12.9287 4.25657 12.9451 4.15955 12.96 4.06464C12.794 3.97663 12.6143 3.90135 12.4208 3.83719C12.3731 3.82129 12.3238 3.80591 12.2739 3.79107Z" fill="#222D65"/>
<path d="M5.8355 4.08143C5.86784 3.87306 6.00145 3.70287 6.18118 3.61698C6.26336 3.57775 6.35402 3.55601 6.44999 3.55601H10.3479C10.8097 3.55601 11.2408 3.58623 11.6342 3.64985C11.7466 3.66788 11.8558 3.68856 11.9623 3.71188C12.0684 3.73574 12.1718 3.76225 12.272 3.79141C12.3218 3.80626 12.3711 3.82163 12.4194 3.83701C12.6129 3.90116 12.7926 3.97698 12.9586 4.06446C13.1537 2.82011 12.957 1.97287 12.2842 1.20569C11.5424 0.3611 10.2037 -0.000488281 8.49068 -0.000488281H3.51752C3.16759 -0.000488281 2.8691 0.254002 2.81502 0.600214L0.743577 13.7303C0.702753 13.9901 0.903164 14.2244 1.16508 14.2244H4.23539L5.00628 9.33346L5.8355 4.08143Z" fill="#253B80"/>
</svg>
