<svg width="12" height="12" viewBox="0 0 12 12" fill="none" xmlns="http://www.w3.org/2000/svg">
<path fill-rule="evenodd" clip-rule="evenodd" d="M5.99935 2.66797C6.26234 2.66797 6.47554 2.88117 6.47554 3.14416V5.52511H8.85649C9.11948 5.52511 9.33268 5.73831 9.33268 6.0013C9.33268 6.26429 9.11948 6.47749 8.85649 6.47749H6.47554V8.85844C6.47554 9.12144 6.26234 9.33464 5.99935 9.33464C5.73636 9.33464 5.52316 9.12144 5.52316 8.85844V6.47749H3.14221C2.87921 6.47749 2.66602 6.26429 2.66602 6.0013C2.66602 5.73831 2.87921 5.52511 3.14221 5.52511H5.52316V3.14416C5.52316 2.88117 5.73636 2.66797 5.99935 2.66797Z" fill="#A7A7A7"/>
</svg>
