<svg width="32" height="32" viewBox="0 0 32 32" fill="none" xmlns="http://www.w3.org/2000/svg">
<path fill-rule="evenodd" clip-rule="evenodd" d="M9.33337 5.33335C8.97975 5.33335 8.64061 5.47383 8.39056 5.72388C8.14052 5.97393 8.00004 6.31306 8.00004 6.66669V25.3334C8.00004 25.687 8.14052 26.0261 8.39056 26.2762C8.64061 26.5262 8.97975 26.6667 9.33337 26.6667H22.6667C23.0203 26.6667 23.3595 26.5262 23.6095 26.2762C23.8596 26.0261 24 25.687 24 25.3334L24 12.5523L16.7812 5.3335L9.33337 5.33335ZM6.50495 3.83826C7.25509 3.08811 8.27251 2.66669 9.33337 2.66669H16.7814C17.4885 2.66684 18.1669 2.94784 18.6668 3.44788M18.6668 3.44788L25.8854 10.6664C25.8854 10.6665 25.8853 10.6664 25.8854 10.6664C26.3854 11.1664 26.6666 11.8446 26.6667 12.5517V25.3334C26.6667 26.3942 26.2453 27.4116 25.4951 28.1618C24.745 28.9119 23.7276 29.3334 22.6667 29.3334H9.33337C8.27251 29.3334 7.25509 28.9119 6.50495 28.1618C5.7548 27.4116 5.33337 26.3942 5.33337 25.3334V6.66669C5.33337 5.60582 5.7548 4.58841 6.50495 3.83826M10.6667 16C10.6667 15.2636 11.2637 14.6667 12 14.6667H20C20.7364 14.6667 21.3334 15.2636 21.3334 16C21.3334 16.7364 20.7364 17.3334 20 17.3334H12C11.2637 17.3334 10.6667 16.7364 10.6667 16ZM10.6667 21.3334C10.6667 20.597 11.2637 20 12 20H20C20.7364 20 21.3334 20.597 21.3334 21.3334C21.3334 22.0697 20.7364 22.6667 20 22.6667H12C11.2637 22.6667 10.6667 22.0697 10.6667 21.3334Z" fill="#656565"/>
</svg>
