<svg width="32" height="32" viewBox="0 0 32 32" fill="none" xmlns="http://www.w3.org/2000/svg">
<path fill-rule="evenodd" clip-rule="evenodd" d="M10 15L15.5 6L21 15H10ZM17.43 13L15.5 9.84L13.56 13H17.43ZM21 17C18.51 17 16.5 19.01 16.5 21.5C16.5 23.99 18.51 26 21 26C23.49 26 25.5 23.99 25.5 21.5C25.5 19.01 23.49 17 21 17ZM18.5 21.5C18.5 22.88 19.62 24 21 24C22.38 24 23.5 22.88 23.5 21.5C23.5 20.12 22.38 19 21 19C19.62 19 18.5 20.12 18.5 21.5ZM6.5 25.5H14.5V17.5H6.5V25.5ZM12.5 19.5H8.5V23.5H12.5V19.5Z" fill="#656565"/>
</svg>
