<svg width="32" height="32" viewBox="0 0 32 32" fill="none" xmlns="http://www.w3.org/2000/svg">
<path fill-rule="evenodd" clip-rule="evenodd" d="M18.2929 7.29289C17.9024 7.68342 17.9024 8.31658 18.2929 8.70711L22.5858 13H15C12.6131 13 10.3239 13.9482 8.63604 15.636C6.94821 17.3239 6 19.6131 6 22V24C6 24.5523 6.44772 25 7 25C7.55228 25 8 24.5523 8 24V22C8 20.1435 8.7375 18.363 10.0503 17.0503C11.363 15.7375 13.1435 15 15 15H22.5858L18.2929 19.2929C17.9024 19.6834 17.9024 20.3166 18.2929 20.7071C18.6834 21.0976 19.3166 21.0976 19.7071 20.7071L25.7071 14.7071C26.0976 14.3166 26.0976 13.6834 25.7071 13.2929L19.7071 7.29289C19.3166 6.90237 18.6834 6.90237 18.2929 7.29289Z" fill="#656565"/>
</svg>
