<svg width="32" height="32" viewBox="0 0 32 32" fill="none" xmlns="http://www.w3.org/2000/svg">
<path fill-rule="evenodd" clip-rule="evenodd" d="M16 7C16.5523 7 17 7.44772 17 8V15.5858L18.2929 14.2929C18.6834 13.9024 19.3166 13.9024 19.7071 14.2929C20.0976 14.6834 20.0976 15.3166 19.7071 15.7071L16.7071 18.7071C16.3166 19.0976 15.6834 19.0976 15.2929 18.7071L12.2929 15.7071C11.9024 15.3166 11.9024 14.6834 12.2929 14.2929C12.6834 13.9024 13.3166 13.9024 13.7071 14.2929L15 15.5858V8C15 7.44772 15.4477 7 16 7ZM6.87868 10.8787C7.44129 10.3161 8.20435 10 9 10H12C12.5523 10 13 10.4477 13 11C13 11.5523 12.5523 12 12 12H9C8.73478 12 8.48043 12.1054 8.29289 12.2929C8.10536 12.4804 8 12.7348 8 13V22C8 22.2652 8.10536 22.5196 8.29289 22.7071C8.48043 22.8946 8.73478 23 9 23H23C23.2652 23 23.5196 22.8946 23.7071 22.7071C23.8946 22.5196 24 22.2652 24 22V13C24 12.7348 23.8946 12.4804 23.7071 12.2929C23.5196 12.1054 23.2652 12 23 12H20C19.4477 12 19 11.5523 19 11C19 10.4477 19.4477 10 20 10H23C23.7957 10 24.5587 10.3161 25.1213 10.8787C25.6839 11.4413 26 12.2043 26 13V22C26 22.7957 25.6839 23.5587 25.1213 24.1213C24.5587 24.6839 23.7957 25 23 25H9C8.20435 25 7.44129 24.6839 6.87868 24.1213C6.31607 23.5587 6 22.7956 6 22V13C6 12.2044 6.31607 11.4413 6.87868 10.8787Z" fill="#656565"/>
</svg>
