<svg width="24" height="24" viewBox="0 0 24 24" fill="none" xmlns="http://www.w3.org/2000/svg">
<path fill-rule="evenodd" clip-rule="evenodd" d="M2.83331 12C4.27498 8.34167 7.83331 5.75 12 5.75C16.1666 5.75 19.725 8.34167 21.1666 12C19.725 15.6583 16.1666 18.25 12 18.25C7.83331 18.25 4.27498 15.6583 2.83331 12ZM19.35 12C17.975 9.19167 15.1583 7.41667 12 7.41667C8.84165 7.41667 6.02498 9.19167 4.64998 12C6.02498 14.8083 8.84165 16.5833 12 16.5833C15.1583 16.5833 17.975 14.8083 19.35 12ZM12 9.91667C13.15 9.91667 14.0833 10.85 14.0833 12C14.0833 13.15 13.15 14.0833 12 14.0833C10.85 14.0833 9.91665 13.15 9.91665 12C9.91665 10.85 10.85 9.91667 12 9.91667ZM8.24998 12C8.24998 9.93333 9.93331 8.25 12 8.25C14.0666 8.25 15.75 9.93333 15.75 12C15.75 14.0667 14.0666 15.75 12 15.75C9.93331 15.75 8.24998 14.0667 8.24998 12Z" fill="#A7A7A7"/>
</svg>
