<svg width="32" height="32" viewBox="0 0 32 32" fill="none" xmlns="http://www.w3.org/2000/svg">
<path fill-rule="evenodd" clip-rule="evenodd" d="M10.9289 5.27312C11.4624 5.13005 12.0108 5.4465 12.1538 5.97993L12.9308 8.87693C13.0739 9.41037 12.7575 9.95878 12.224 10.1019C11.6906 10.2449 11.1422 9.92847 10.9991 9.39504L10.2221 6.49804C10.079 5.96461 10.3955 5.41619 10.9289 5.27312ZM18.6571 7.34288C19.0476 7.73341 19.0476 8.36657 18.6571 8.75709L16.5351 10.8791C16.1446 11.2696 15.5114 11.2696 15.1209 10.8791C14.7303 10.4886 14.7303 9.8554 15.1209 9.46488L17.2429 7.34288C17.6334 6.95236 18.2666 6.95236 18.6571 7.34288ZM5.27209 10.929C5.41512 10.3956 5.96351 10.0791 6.49695 10.2221L9.39495 10.9991C9.92839 11.1421 10.2449 11.6905 10.1019 12.224C9.95884 12.7574 9.41046 13.0739 8.87701 12.9309L5.97901 12.1539C5.44557 12.0108 5.12907 11.4625 5.27209 10.929ZM12.2929 12.2929C12.5676 12.0182 12.9766 11.9274 13.3417 12.0602L24.3417 16.0602C24.7315 16.2019 24.9933 16.5695 24.9999 16.9841C25.0064 17.3988 24.7564 17.7744 24.3714 17.9285L20.7794 19.3652L24.7071 23.2929C25.0976 23.6834 25.0976 24.3166 24.7071 24.7071C24.3166 25.0976 23.6834 25.0976 23.2929 24.7071L19.3652 20.7794L17.9285 24.3714C17.7744 24.7564 17.3988 25.0064 16.9841 24.9999C16.5695 24.9933 16.2019 24.7315 16.0602 24.3417L12.0602 13.3417C11.9274 12.9766 12.0181 12.5676 12.2929 12.2929ZM14.6721 14.6721L17.0445 21.1962L18.0715 18.6286C18.1731 18.3745 18.3745 18.1732 18.6286 18.0715L21.1962 17.0445L14.6721 14.6721ZM10.8778 15.1205C11.2685 15.5109 11.2688 16.1441 10.8784 16.5348L8.75842 18.6568C8.36808 19.0475 7.73492 19.0478 7.34421 18.6574C6.9535 18.2671 6.9532 17.6339 7.34354 17.2432L9.46354 15.1212C9.85388 14.7305 10.487 14.7302 10.8778 15.1205Z" fill="#656565"/>
</svg>
