<svg width="48" height="48" viewBox="0 0 48 48" fill="none" xmlns="http://www.w3.org/2000/svg">
<path fill-rule="evenodd" clip-rule="evenodd" d="M23.9996 6.4719L20.7379 16.5104C20.3363 17.7465 19.1844 18.5834 17.8847 18.5834H7.3296L15.8689 24.7875C16.9203 25.5514 17.3603 26.9055 16.9587 28.1416L13.697 38.1801L22.2362 31.976C23.2877 31.212 24.7115 31.212 25.7629 31.976L34.3022 38.1801L31.0405 28.1416C30.6389 26.9055 31.0789 25.5514 32.1303 24.7875L40.6696 18.5834H30.1145C28.8148 18.5834 27.6629 17.7465 27.2613 16.5104L23.9996 6.4719ZM24.9506 2.92682C24.6513 2.00551 23.3479 2.00551 23.0485 2.92682L18.8358 15.8924C18.7019 16.3044 18.3179 16.5834 17.8847 16.5834H4.25192C3.28319 16.5834 2.88042 17.823 3.66413 18.3924L14.6933 26.4055C15.0438 26.6602 15.1904 27.1115 15.0566 27.5236L10.8438 40.4891C10.5444 41.4104 11.5989 42.1766 12.3826 41.6072L23.4118 33.594C23.7623 33.3394 24.2369 33.3394 24.5874 33.594L35.6165 41.6072C36.4002 42.1766 37.4547 41.4104 37.1554 40.4891L32.9426 27.5236C32.8087 27.1115 32.9554 26.6602 33.3059 26.4055L44.335 18.3924C45.1188 17.823 44.716 16.5834 43.7473 16.5834H30.1145C29.6812 16.5834 29.2973 16.3044 29.1634 15.8924L24.9506 2.92682Z" fill="#D3D3D3"/>
</svg>
