<svg width="48" height="48" viewBox="0 0 48 48" fill="none" xmlns="http://www.w3.org/2000/svg">
<path d="M23.0485 2.92682C23.3479 2.00551 24.6513 2.00551 24.9506 2.92682L29.1634 15.8924C29.2973 16.3044 29.6812 16.5834 30.1145 16.5834H43.7473C44.716 16.5834 45.1188 17.823 44.335 18.3924L33.3059 26.4055C32.9554 26.6602 32.8087 27.1115 32.9426 27.5236L37.1554 40.4891C37.4547 41.4104 36.4002 42.1766 35.6165 41.6072L24.5874 33.594C24.2369 33.3394 23.7623 33.3394 23.4118 33.594L12.3826 41.6072C11.5989 42.1766 10.5444 41.4104 10.8438 40.4891L15.0566 27.5236C15.1904 27.1115 15.0438 26.6602 14.6933 26.4055L3.66413 18.3924C2.88042 17.823 3.28319 16.5834 4.25192 16.5834H17.8847C18.3179 16.5834 18.7019 16.3044 18.8358 15.8924L23.0485 2.92682Z" fill="#F18B6B"/>
</svg>
