<svg width="32" height="32" viewBox="0 0 32 32" fill="none" xmlns="http://www.w3.org/2000/svg">
<path fill-rule="evenodd" clip-rule="evenodd" d="M7.58579 7.58579C7.96086 7.21071 8.46957 7 9 7H23C23.5304 7 24.0391 7.21071 24.4142 7.58579C24.7893 7.96086 25 8.46957 25 9V11C25 11.5304 24.7893 12.0391 24.4142 12.4142C24.0391 12.7893 23.5304 13 23 13H9C8.46957 13 7.96086 12.7893 7.58579 12.4142C7.21071 12.0391 7 11.5304 7 11V9C7 8.46957 7.21071 7.96086 7.58579 7.58579ZM23 9H9L9 11H23V9ZM7.58579 15.5858C7.96086 15.2107 8.46957 15 9 15H15C15.5304 15 16.0391 15.2107 16.4142 15.5858C16.7893 15.9609 17 16.4696 17 17V23C17 23.5304 16.7893 24.0391 16.4142 24.4142C16.0391 24.7893 15.5304 25 15 25H9C8.46957 25 7.96086 24.7893 7.58579 24.4142C7.21071 24.0391 7 23.5304 7 23V17C7 16.4696 7.21071 15.9609 7.58579 15.5858ZM15 17H9L9 23H15V17ZM19.5858 15.5858C19.9609 15.2107 20.4696 15 21 15H23C23.5304 15 24.0391 15.2107 24.4142 15.5858C24.7893 15.9609 25 16.4696 25 17V23C25 23.5304 24.7893 24.0391 24.4142 24.4142C24.0391 24.7893 23.5304 25 23 25H21C20.4696 25 19.9609 24.7893 19.5858 24.4142C19.2107 24.0391 19 23.5304 19 23V17C19 16.4696 19.2107 15.9609 19.5858 15.5858ZM23 17H21L21 23H23V17Z" fill="#656565"/>
</svg>
