<svg width="14" height="11" viewBox="0 0 14 11" fill="none" xmlns="http://www.w3.org/2000/svg">
<path d="M12.1691 2.62971C12.177 2.74432 12.177 2.85892 12.177 2.97458C12.177 6.49882 9.49411 10.5633 4.58828 10.5633V10.5612C3.13908 10.5633 1.71999 10.1482 0.5 9.36553C0.710725 9.39088 0.922507 9.40355 1.13482 9.40408C2.33579 9.40514 3.50244 9.00217 4.44727 8.26014C3.30597 8.23849 2.30516 7.49435 1.95554 6.40798C2.35533 6.48509 2.76728 6.46924 3.15968 6.36203C1.9154 6.11064 1.02021 5.0174 1.02021 3.74777C1.02021 3.73615 1.02021 3.72506 1.02021 3.71397C1.39096 3.92047 1.80607 4.03508 2.23069 4.04775C1.05877 3.26453 0.697522 1.70548 1.40522 0.486549C2.75935 2.15281 4.75728 3.16577 6.90203 3.27298C6.68708 2.34663 6.98072 1.37593 7.67363 0.724737C8.74786 -0.285053 10.4374 -0.233296 11.4471 0.840399C12.0445 0.722625 12.617 0.50345 13.1409 0.192907C12.9418 0.810295 12.5251 1.33473 11.9684 1.66798C12.4971 1.60566 13.0136 1.46412 13.5 1.24812C13.1419 1.7847 12.6909 2.2521 12.1691 2.62971Z" fill="white"/>
</svg>
