<svg width="32" height="32" viewBox="0 0 32 32" fill="none" xmlns="http://www.w3.org/2000/svg">
<path fill-rule="evenodd" clip-rule="evenodd" d="M13.7071 7.29289C14.0976 7.68342 14.0976 8.31658 13.7071 8.70711L9.41421 13H17C19.3869 13 21.6761 13.9482 23.364 15.636C25.0518 17.3239 26 19.6131 26 22V24C26 24.5523 25.5523 25 25 25C24.4477 25 24 24.5523 24 24V22C24 20.1435 23.2625 18.363 21.9497 17.0503C20.637 15.7375 18.8565 15 17 15H9.41421L13.7071 19.2929C14.0976 19.6834 14.0976 20.3166 13.7071 20.7071C13.3166 21.0976 12.6834 21.0976 12.2929 20.7071L6.29289 14.7071C5.90237 14.3166 5.90237 13.6834 6.29289 13.2929L12.2929 7.29289C12.6834 6.90237 13.3166 6.90237 13.7071 7.29289Z" fill="#656565"/>
</svg>
