<svg width="24" height="24" viewBox="0 0 24 24" fill="none" xmlns="http://www.w3.org/2000/svg">
<path fill-rule="evenodd" clip-rule="evenodd" d="M11.2929 3.29289C11.6834 2.90237 12.3166 2.90237 12.7071 3.29289L16.7071 7.29289C17.0976 7.68342 17.0976 8.31658 16.7071 8.70711C16.3166 9.09763 15.6834 9.09763 15.2929 8.70711L13 6.41421V16C13 16.5523 12.5523 17 12 17C11.4477 17 11 16.5523 11 16V6.41421L8.70711 8.70711C8.31658 9.09763 7.68342 9.09763 7.29289 8.70711C6.90237 8.31658 6.90237 7.68342 7.29289 7.29289L11.2929 3.29289ZM4 15C4.55228 15 5 15.4477 5 16V17C5 17.5304 5.21071 18.0391 5.58579 18.4142C5.96086 18.7893 6.46957 19 7 19H17C17.5304 19 18.0391 18.7893 18.4142 18.4142C18.7893 18.0391 19 17.5304 19 17V16C19 15.4477 19.4477 15 20 15C20.5523 15 21 15.4477 21 16V17C21 18.0609 20.5786 19.0783 19.8284 19.8284C19.0783 20.5786 18.0609 21 17 21H7C5.93913 21 4.92172 20.5786 4.17157 19.8284C3.42143 19.0783 3 18.0609 3 17V16C3 15.4477 3.44772 15 4 15Z" fill="#656565"/>
</svg>
