<svg width="24" height="24" viewBox="0 0 24 24" fill="none" xmlns="http://www.w3.org/2000/svg">
<path fill-rule="evenodd" clip-rule="evenodd" d="M10.3333 5.33334C10.1123 5.33334 9.90036 5.42114 9.74408 5.57742C9.5878 5.7337 9.5 5.94566 9.5 6.16667V14.5C9.5 14.721 9.5878 14.933 9.74408 15.0893C9.90036 15.2455 10.1123 15.3333 10.3333 15.3333H17C17.221 15.3333 17.433 15.2455 17.5893 15.0893C17.7455 14.933 17.8333 14.721 17.8333 14.5V9.01185L14.1549 5.33343L10.3333 5.33334ZM8.56557 4.3989C9.03441 3.93006 9.67029 3.66667 10.3333 3.66667H14.155C14.5969 3.66677 15.0209 3.84239 15.3334 4.15492M15.3334 4.15492L19.0117 7.83316C19.0117 7.83319 19.0116 7.83313 19.0117 7.83316C19.3242 8.14564 19.4999 8.56955 19.5 9.01149V14.5C19.5 15.163 19.2366 15.7989 18.7678 16.2678C18.2989 16.7366 17.663 17 17 17H16.1667V17.8333C16.1667 18.4964 15.9033 19.1323 15.4344 19.6011C14.9656 20.0699 14.3297 20.3333 13.6667 20.3333H7C6.33696 20.3333 5.70107 20.0699 5.23223 19.6011C4.76339 19.1323 4.5 18.4964 4.5 17.8333V9.50001C4.5 8.83696 4.76339 8.20108 5.23223 7.73224C5.70107 7.2634 6.33696 7.00001 7 7.00001H7.83333V6.16667C7.83333 5.50363 8.09673 4.86775 8.56557 4.3989M7.83333 8.66667H7C6.77899 8.66667 6.56702 8.75447 6.41074 8.91075C6.25446 9.06703 6.16667 9.27899 6.16667 9.50001V17.8333C6.16667 18.0544 6.25446 18.2663 6.41074 18.4226C6.56702 18.5789 6.77899 18.6667 7 18.6667H13.6667C13.8877 18.6667 14.0996 18.5789 14.2559 18.4226C14.4122 18.2663 14.5 18.0544 14.5 17.8333V17H10.3333C9.67029 17 9.03441 16.7366 8.56557 16.2678C8.09673 15.7989 7.83333 15.163 7.83333 14.5V8.66667Z" fill="#A7A7A7"/>
</svg>
