<svg width="15" height="14" viewBox="0 0 15 14" fill="none" xmlns="http://www.w3.org/2000/svg">
<path d="M7.52935 0C3.68703 0 0.560065 3.01181 0.55871 6.71323C0.557806 7.8969 0.879355 9.05213 1.48903 10.0696L0.5 13.5484L4.19555 12.6149C5.22352 13.1526 6.36653 13.4331 7.52664 13.4323H7.52935C11.3717 13.4323 14.4986 10.4201 14.5 6.71865C14.5009 4.92574 13.7765 3.23806 12.4601 1.96948C11.1441 0.700452 9.39406 0.000451613 7.52935 0ZM7.52935 12.2983H7.5271C6.48748 12.2983 5.46774 12.0292 4.57806 11.5206L4.36581 11.3996L2.17368 11.9533L2.75897 9.89394L2.62123 9.68303C2.04267 8.80065 1.73468 7.76837 1.73516 6.71323C1.73652 3.63639 4.336 1.134 7.53161 1.134C9.07884 1.13445 10.5335 1.71568 11.6277 2.77019C12.722 3.82471 13.324 5.22697 13.3231 6.71819C13.3217 9.79503 10.7227 12.2983 7.5289 12.2983H7.52935ZM10.7074 8.11864C10.533 8.0351 9.67677 7.6291 9.5169 7.57265C9.35748 7.5171 9.24142 7.48819 9.12535 7.65619C9.00974 7.82419 8.67555 8.20219 8.57439 8.31374C8.47232 8.42574 8.37071 8.43929 8.19639 8.35574C8.02206 8.27174 7.46071 8.09471 6.79593 7.52297C6.27794 7.07858 5.92839 6.52942 5.82677 6.36097C5.72516 6.19342 5.81594 6.10265 5.9031 6.0191C5.98123 5.94458 6.07742 5.82355 6.16413 5.72555C6.25084 5.62755 6.27974 5.55755 6.33845 5.44555C6.39626 5.334 6.36735 5.23555 6.32355 5.152C6.27974 5.06755 5.932 4.242 5.78613 3.90645C5.64523 3.57948 5.50161 3.62329 5.39458 3.61787C5.29297 3.61335 5.17735 3.612 5.06039 3.612C4.94523 3.612 4.756 3.654 4.59613 3.822C4.43671 3.99 3.98645 4.39555 3.98645 5.2211C3.98645 6.0471 4.61058 6.84465 4.69774 6.95665C4.7849 7.06819 5.92613 8.7631 7.67342 9.49019C8.0889 9.66226 8.41316 9.76568 8.66652 9.84336C9.08381 9.97116 9.46361 9.95265 9.76348 9.90974C10.0977 9.86142 10.7941 9.50419 10.9386 9.11265C11.084 8.7211 11.084 8.3851 11.0406 8.3151C10.9982 8.2451 10.8817 8.2031 10.7074 8.11864Z" fill="white"/>
</svg>
