<svg width="32" height="32" viewBox="0 0 32 32" fill="none" xmlns="http://www.w3.org/2000/svg">
<g id="Icons">
<path id="Ellipse 120" d="M32 16C32 24.8366 24.8366 32 16 32C7.16344 32 0 24.8366 0 16C0 7.16344 7.16344 0 16 0C24.8366 0 32 7.16344 32 16Z" fill="#656565"/>
<path id="vector" d="M16.7058 6.66669C11.5827 6.66669 7.41346 10.6824 7.41165 15.6177C7.41045 17.1959 7.83918 18.7362 8.65208 20.0928L7.33337 24.7312L12.2608 23.4866C13.6314 24.2035 15.1554 24.5775 16.7022 24.5765H16.7058C21.8289 24.5765 25.9982 20.5601 26 15.6249C26.0012 13.2343 25.0354 10.9841 23.2801 9.29267C21.5255 7.60062 19.1921 6.66729 16.7058 6.66669ZM16.7058 23.0645H16.7028C15.3167 23.0645 13.957 22.7056 12.7708 22.0275L12.4878 21.8662L9.56494 22.6044L10.3453 19.8586L10.1617 19.5774C9.39026 18.4009 8.97961 17.0245 8.98026 15.6177C8.98206 11.5152 12.448 8.17869 16.7089 8.17869C18.7718 8.17929 20.7114 8.95426 22.1704 10.3603C23.6294 11.7663 24.432 13.636 24.4308 15.6243C24.429 19.7267 20.9637 23.0645 16.7052 23.0645H16.7058ZM20.9432 17.4915C20.7107 17.3801 19.5691 16.8388 19.3559 16.7635C19.1434 16.6895 18.9886 16.6509 18.8338 16.8749C18.6797 17.0989 18.2341 17.6029 18.0992 17.7517C17.9631 17.901 17.8277 17.9191 17.5952 17.8077C17.3628 17.6957 16.6143 17.4596 15.728 16.6973C15.0373 16.1048 14.5712 15.3726 14.4357 15.148C14.3003 14.9246 14.4213 14.8035 14.5375 14.6922C14.6417 14.5928 14.7699 14.4314 14.8855 14.3008C15.0012 14.1701 15.0397 14.0768 15.118 13.9274C15.1951 13.7787 15.1565 13.6474 15.0981 13.536C15.0397 13.4234 14.576 12.3227 14.3815 11.8753C14.1937 11.4393 14.0022 11.4977 13.8595 11.4905C13.724 11.4845 13.5698 11.4827 13.4139 11.4827C13.2603 11.4827 13.008 11.5387 12.7949 11.7627C12.5823 11.9867 11.982 12.5274 11.982 13.6281C11.982 14.7295 12.8141 15.7929 12.9304 15.9422C13.0466 16.0909 14.5682 18.3508 16.8979 19.3203C17.4519 19.5497 17.8843 19.6876 18.2221 19.7912C18.7784 19.9616 19.2849 19.9369 19.6847 19.8797C20.1303 19.8152 21.0588 19.3389 21.2515 18.8169C21.4454 18.2948 21.4454 17.8468 21.3876 17.7535C21.331 17.6602 21.1756 17.6041 20.9432 17.4915Z" fill="white"/>
</g>
</svg>
