<svg width="14" height="10" viewBox="0 0 14 10" fill="none" xmlns="http://www.w3.org/2000/svg">
<path fill-rule="evenodd" clip-rule="evenodd" d="M12.4544 0.296533C13.0565 0.458278 13.5327 0.934534 13.6945 1.53658C13.991 2.63286 14 4.90629 14 4.90629C14 4.90629 14 7.1887 13.7035 8.27599C13.5417 8.87805 13.0655 9.3543 12.4634 9.51605C11.3761 9.81258 7 9.81258 7 9.81258C7 9.81258 2.62388 9.81258 1.53659 9.51605C0.934531 9.3543 0.45828 8.87805 0.296534 8.27599C0 7.17972 0 4.90629 0 4.90629C0 4.90629 0 2.63286 0.287548 1.54557C0.449294 0.943517 0.925546 0.467267 1.5276 0.305522C2.61489 0.00898369 6.99101 0 6.99101 0C6.99101 0 11.3671 0 12.4544 0.296533ZM9.2285 4.90629L5.5982 7.00899V2.8036L9.2285 4.90629Z" fill="white"/>
</svg>
