<svg width="32" height="32" viewBox="0 0 32 32" fill="none" xmlns="http://www.w3.org/2000/svg">
<g id="Icons">
<path id="Ellipse 120" d="M32 16C32 24.8366 24.8366 32 16 32C7.16344 32 0 24.8366 0 16C0 7.16344 7.16344 0 16 0C24.8366 0 32 7.16344 32 16Z" fill="#656565"/>
<path id="vector" fill-rule="evenodd" clip-rule="evenodd" d="M23.2727 9.72869C24.0754 9.94435 24.7104 10.5794 24.9261 11.3821C25.3214 12.8438 25.3334 15.875 25.3334 15.875C25.3334 15.875 25.3334 18.9183 24.938 20.368C24.7224 21.1707 24.0874 21.8057 23.2846 22.0214C21.8349 22.4168 16.0001 22.4168 16.0001 22.4168C16.0001 22.4168 10.1653 22.4168 8.71553 22.0214C7.91279 21.8057 7.27779 21.1707 7.06213 20.368C6.66675 18.9063 6.66675 15.875 6.66675 15.875C6.66675 15.875 6.66675 12.8438 7.05015 11.3941C7.26581 10.5913 7.90081 9.95634 8.70355 9.74068C10.1533 9.34529 15.9881 9.33331 15.9881 9.33331C15.9881 9.33331 21.8229 9.33331 23.2727 9.72869ZM18.9714 15.875L14.131 18.6786V13.0714L18.9714 15.875Z" fill="white"/>
</g>
</svg>
