<svg width="32" height="32" viewBox="0 0 32 32" fill="none" xmlns="http://www.w3.org/2000/svg">
<path d="M32 16C32 24.8366 24.8366 32 16 32C7.16344 32 0 24.8366 0 16C0 7.16344 7.16344 0 16 0C24.8366 0 32 7.16344 32 16Z" fill="white"/>
<path d="M15.0798 9.16755C9.12786 9.16755 9.60352 15.3073 9.98284 18.6667L6.40443 18.6667C3.55989 4.67079 16.6428 4.66909 16.9304 4.66905L16.9305 4.66905C27.5262 4.50168 27.1642 13.2502 24.2008 18.1067L18.9142 18.1067C19.8213 12.0837 18.0892 9.16755 15.0798 9.16755Z" fill="#F18B6B"/>
<path fill-rule="evenodd" clip-rule="evenodd" d="M10.7479 6.8495C13.5769 5.17195 16.8035 5.16907 16.9304 5.16905L16.9384 5.16905C19.5215 5.12825 21.3838 5.6318 22.6901 6.44029C23.9893 7.24434 24.7739 8.3713 25.1729 9.65257C25.9535 12.1595 25.2574 15.2799 23.9161 17.6067L19.4885 17.6067C19.8416 14.8312 19.6267 12.6747 18.9183 11.166C18.142 9.51267 16.7828 8.66755 15.0798 8.66755C13.5027 8.66755 12.2994 9.07602 11.407 9.78867C10.5186 10.4982 9.98625 11.471 9.67757 12.5156C9.1319 14.3622 9.2581 16.5339 9.42571 18.1667L6.81669 18.1667C6.2216 14.9441 6.51727 12.5506 7.26923 10.7695C8.05101 8.9178 9.34578 7.68089 10.7479 6.8495ZM6.34797 10.3806C5.46874 12.4631 5.1884 15.1941 5.91442 18.7663L5.9958 19.1667L10.5424 19.1667L10.4797 18.6106C10.2889 16.9209 10.0916 14.6434 10.6366 12.799C10.9056 11.8888 11.3466 11.1167 12.0311 10.5701C12.7117 10.0265 13.6809 9.66755 15.0798 9.66755C16.3862 9.66755 17.3978 10.2805 18.0131 11.591C18.6482 12.9436 18.8669 15.0632 18.4198 18.0323L18.3332 18.6067L24.4814 18.6067L24.6276 18.3672C26.1578 15.8595 27.0471 12.3078 26.1277 9.35527C25.6631 7.86327 24.7368 6.53095 23.2164 5.58997C21.7039 4.65387 19.6393 4.12674 16.9265 4.16905C16.7218 4.16913 13.2897 4.17966 10.2378 5.98935C8.6888 6.90787 7.22821 8.29562 6.34797 10.3806Z" fill="#F18B6B"/>
<path d="M17.7224 16.6667H20.4424L18.6824 25.4667C17.7224 28.6667 14.2157 27.8667 13.7357 25.4667L12.069 18H14.4023C14.509 19.0667 14.813 20.7707 15.069 21.6667C15.325 22.5627 16.069 23.6667 16.7357 21.6667L17.7224 16.6667Z" fill="#4BA1B4"/>
<path fill-rule="evenodd" clip-rule="evenodd" d="M21.0522 16.1667H17.3114L16.2514 21.5381C16.111 21.9515 15.9859 22.1598 15.9046 22.2531C15.9031 22.2515 15.9016 22.2499 15.9 22.2482C15.8629 22.208 15.82 22.15 15.775 22.0732C15.6844 21.9185 15.6048 21.7221 15.5497 21.5293C15.3037 20.6682 15.0042 18.9945 14.8998 17.9503L14.8548 17.5H11.4451L13.2465 25.5704C13.5336 26.993 14.7166 27.9447 15.9819 28.0645C16.6221 28.125 17.2872 27.9731 17.863 27.5607C18.439 27.1482 18.8951 26.4975 19.1613 25.6104L19.168 25.5878L21.0522 16.1667ZM19.8324 17.1667L18.1968 25.3449C17.9825 26.0451 17.6436 26.4879 17.2808 26.7477C16.9141 27.0103 16.4926 27.1083 16.0761 27.0689C15.2297 26.9888 14.4208 26.3429 14.2259 25.3686L14.2238 25.3577L12.6929 18.5H13.9563C14.0925 19.5727 14.3565 20.9932 14.5882 21.804C14.6611 22.0593 14.7705 22.3368 14.9122 22.5787C15.0445 22.8044 15.2476 23.0733 15.5401 23.2073C15.6996 23.2803 15.8876 23.3134 16.0872 23.2708C16.2822 23.2292 16.4461 23.1244 16.5795 22.994C16.8337 22.7455 17.0359 22.3471 17.21 21.8248L17.22 21.7947L18.1333 17.1667H19.8324Z" fill="#4BA1B4"/>
</svg>
