<svg width="700" height="700" viewBox="0 0 700 700" fill="none" xmlns="http://www.w3.org/2000/svg">
<circle cx="350" cy="350" r="350" fill="white"/>
<path d="M345.796 200.54C224.276 200.54 233.988 334.846 241.732 408.333L168.673 408.333C110.597 102.173 377.707 102.136 383.578 102.135L383.581 102.135C599.909 98.4739 592.519 289.847 532.016 396.085L424.081 396.085C442.601 264.331 407.238 200.54 345.796 200.54Z" fill="#F18B6B" stroke="#F18B6B"/>
<path d="M410.564 408.333H495.834L440.659 596.529C410.564 664.964 300.631 647.856 285.583 596.529L233.334 436.848H306.483C309.826 459.66 319.357 496.101 327.382 515.263C335.408 534.425 358.731 558.035 379.631 515.263L410.564 408.333Z" fill="#4BA1B4" stroke="#4BA1B4"/>
</svg>
